<svg width="212" height="80" viewBox="0 0 212 80" fill="none" xmlns="http://www.w3.org/2000/svg">
<path d="M19.44 4.8C19.6 5.44 19.68 6.24 19.68 7.2C19.68 8.12 19.6 8.92 19.44 9.6C19.6 10.24 19.68 11.04 19.68 12C19.68 12.92 19.6 13.72 19.44 14.4H17.64C17.8 15.04 17.88 15.84 17.88 16.8C17.88 17.72 17.8 18.52 17.64 19.2H15.84C16 19.84 16.08 20.64 16.08 21.6C16.08 22.52 16 23.32 15.84 24H14.64C14.8 24.64 14.88 25.44 14.88 26.4C14.88 27.32 14.8 28.12 14.64 28.8H12.24C12.4 29.44 12.48 30.24 12.48 31.2C12.48 32.12 12.4 32.92 12.24 33.6H7.44C7.28 32.92 7.2 32.12 7.2 31.2C7.2 30.24 7.28 29.44 7.44 28.8H5.04C4.88 28.12 4.8 27.32 4.8 26.4C4.8 25.44 4.88 24.64 5.04 24H3.84C3.68 23.32 3.6 22.52 3.6 21.6C3.6 20.64 3.68 19.84 3.84 19.2H2.04C1.88 18.52 1.8 17.72 1.8 16.8C1.8 15.84 1.88 15.04 2.04 14.4H0.24C0.08 13.72 0 12.92 0 12C0 11.04 0.08 10.24 0.24 9.6C0.08 8.92 0 8.12 0 7.2C0 6.24 0.08 5.44 0.24 4.8C0.08 4.12 0 3.32 0 2.4C0 1.44 0.08 0.639999 0.24 0H5.04C5.2 0.639999 5.28 1.44 5.28 2.4C5.28 3.32 5.2 4.12 5.04 4.8C5.2 5.44 5.28 6.24 5.28 7.2C5.28 8.12 5.2 8.92 5.04 9.6C5.2 10.24 5.28 11.04 5.28 12C5.28 12.92 5.2 13.72 5.04 14.4H6.84C7 15.04 7.08 15.84 7.08 16.8C7.08 17.72 7 18.52 6.84 19.2H8.64C8.8 19.84 8.88 20.64 8.88 21.6C8.88 22.52 8.8 23.32 8.64 24H11.04C10.88 23.32 10.8 22.52 10.8 21.6C10.8 20.64 10.88 19.84 11.04 19.2H12.84C12.68 18.52 12.6 17.72 12.6 16.8C12.6 15.84 12.68 15.04 12.84 14.4H14.64C14.48 13.72 14.4 12.92 14.4 12C14.4 11.04 14.48 10.24 14.64 9.6C14.48 8.92 14.4 8.12 14.4 7.2C14.4 6.24 14.48 5.44 14.64 4.8C14.48 4.12 14.4 3.32 14.4 2.4C14.4 1.44 14.48 0.639999 14.64 0H19.44C19.6 0.639999 19.68 1.44 19.68 2.4C19.68 3.32 19.6 4.12 19.44 4.8Z" stroke="white"/>
<path d="M31.4634 19.2C31.6234 19.84 31.7034 20.64 31.7034 21.6C31.7034 22.52 31.6234 23.32 31.4634 24C31.6234 24.64 31.7034 25.44 31.7034 26.4C31.7034 27.32 31.6234 28.12 31.4634 28.8H41.0634C41.2234 29.44 41.3034 30.24 41.3034 31.2C41.3034 32.12 41.2234 32.92 41.0634 33.6H26.6634C26.5034 32.92 26.4234 32.12 26.4234 31.2C26.4234 30.24 26.5034 29.44 26.6634 28.8C26.5034 28.12 26.4234 27.32 26.4234 26.4C26.4234 25.44 26.5034 24.64 26.6634 24C26.5034 23.32 26.4234 22.52 26.4234 21.6C26.4234 20.64 26.5034 19.84 26.6634 19.2C26.5034 18.52 26.4234 17.72 26.4234 16.8C26.4234 15.84 26.5034 15.04 26.6634 14.4C26.5034 13.72 26.4234 12.92 26.4234 12C26.4234 11.04 26.5034 10.24 26.6634 9.6C26.5034 8.92 26.4234 8.12 26.4234 7.2C26.4234 6.24 26.5034 5.44 26.6634 4.8C26.5034 4.12 26.4234 3.32 26.4234 2.4C26.4234 1.44 26.5034 0.639999 26.6634 0H41.0634C41.2234 0.639999 41.3034 1.44 41.3034 2.4C41.3034 3.32 41.2234 4.12 41.0634 4.8H31.4634C31.6234 5.44 31.7034 6.24 31.7034 7.2C31.7034 8.12 31.6234 8.92 31.4634 9.6C31.6234 10.24 31.7034 11.04 31.7034 12C31.7034 12.92 31.6234 13.72 31.4634 14.4H41.0634C41.2234 15.04 41.3034 15.84 41.3034 16.8C41.3034 17.72 41.2234 18.52 41.0634 19.2H31.4634Z" stroke="white"/>
<path d="M67.4869 28.8C67.6469 29.44 67.7269 30.24 67.7269 31.2C67.7269 32.12 67.6469 32.92 67.4869 33.6H62.6869C62.5269 32.92 62.4469 32.12 62.4469 31.2C62.4469 30.24 62.5269 29.44 62.6869 28.8H60.8869C60.7269 28.12 60.6469 27.32 60.6469 26.4C60.6469 25.44 60.7269 24.64 60.8869 24H59.0869C58.9269 23.32 58.8469 22.52 58.8469 21.6C58.8469 20.64 58.9269 19.84 59.0869 19.2H53.0869C53.2469 19.84 53.3269 20.64 53.3269 21.6C53.3269 22.52 53.2469 23.32 53.0869 24C53.2469 24.64 53.3269 25.44 53.3269 26.4C53.3269 27.32 53.2469 28.12 53.0869 28.8C53.2469 29.44 53.3269 30.24 53.3269 31.2C53.3269 32.12 53.2469 32.92 53.0869 33.6H48.2869C48.1269 32.92 48.0469 32.12 48.0469 31.2C48.0469 30.24 48.1269 29.44 48.2869 28.8C48.1269 28.12 48.0469 27.32 48.0469 26.4C48.0469 25.44 48.1269 24.64 48.2869 24C48.1269 23.32 48.0469 22.52 48.0469 21.6C48.0469 20.64 48.1269 19.84 48.2869 19.2C48.1269 18.52 48.0469 17.72 48.0469 16.8C48.0469 15.84 48.1269 15.04 48.2869 14.4C48.1269 13.72 48.0469 12.92 48.0469 12C48.0469 11.04 48.1269 10.24 48.2869 9.6C48.1269 8.92 48.0469 8.12 48.0469 7.2C48.0469 6.24 48.1269 5.44 48.2869 4.8C48.1269 4.12 48.0469 3.32 48.0469 2.4C48.0469 1.44 48.1269 0.639999 48.2869 0H65.0869C65.2469 0.639999 65.3269 1.44 65.3269 2.4C65.3269 3.32 65.2469 4.12 65.0869 4.8H67.4869C67.6469 5.44 67.7269 6.24 67.7269 7.2C67.7269 8.12 67.6469 8.92 67.4869 9.6H66.2869C66.4469 10.24 66.5269 11.04 66.5269 12C66.5269 12.92 66.4469 13.72 66.2869 14.4H62.6869C62.8469 15.04 62.9269 15.84 62.9269 16.8C62.9269 17.72 62.8469 18.52 62.6869 19.2H63.8869C64.0469 19.84 64.1269 20.64 64.1269 21.6C64.1269 22.52 64.0469 23.32 63.8869 24H65.6869C65.8469 24.64 65.9269 25.44 65.9269 26.4C65.9269 27.32 65.8469 28.12 65.6869 28.8H67.4869ZM61.4869 14.4C61.3269 13.72 61.2469 12.92 61.2469 12C61.2469 11.04 61.3269 10.24 61.4869 9.6C61.3269 8.92 61.2469 8.12 61.2469 7.2C61.2469 6.24 61.3269 5.44 61.4869 4.8H53.0869C53.2469 5.44 53.3269 6.24 53.3269 7.2C53.3269 8.12 53.2469 8.92 53.0869 9.6C53.2469 10.24 53.3269 11.04 53.3269 12C53.3269 12.92 53.2469 13.72 53.0869 14.4H61.4869Z" stroke="white"/>
<path d="M91.7503 2.4C91.7503 3.32 91.6703 4.12 91.5103 4.8H84.3103C84.4703 5.44 84.5503 6.24 84.5503 7.2C84.5503 8.12 84.4703 8.92 84.3103 9.6C84.4703 10.24 84.5503 11.04 84.5503 12C84.5503 12.92 84.4703 13.72 84.3103 14.4C84.4703 15.04 84.5503 15.84 84.5503 16.8C84.5503 17.72 84.4703 18.52 84.3103 19.2C84.4703 19.84 84.5503 20.64 84.5503 21.6C84.5503 22.52 84.4703 23.32 84.3103 24C84.4703 24.64 84.5503 25.44 84.5503 26.4C84.5503 27.32 84.4703 28.12 84.3103 28.8C84.4703 29.44 84.5503 30.24 84.5503 31.2C84.5503 32.12 84.4703 32.92 84.3103 33.6H79.5103C79.3503 32.92 79.2703 32.12 79.2703 31.2C79.2703 30.24 79.3503 29.44 79.5103 28.8C79.3503 28.12 79.2703 27.32 79.2703 26.4C79.2703 25.44 79.3503 24.64 79.5103 24C79.3503 23.32 79.2703 22.52 79.2703 21.6C79.2703 20.64 79.3503 19.84 79.5103 19.2C79.3503 18.52 79.2703 17.72 79.2703 16.8C79.2703 15.84 79.3503 15.04 79.5103 14.4C79.3503 13.72 79.2703 12.92 79.2703 12C79.2703 11.04 79.3503 10.24 79.5103 9.6C79.3503 8.92 79.2703 8.12 79.2703 7.2C79.2703 6.24 79.3503 5.44 79.5103 4.8H72.3103C72.1503 4.12 72.0703 3.32 72.0703 2.4C72.0703 1.44 72.1503 0.639999 72.3103 0H91.5103C91.6703 0.639999 91.7503 1.44 91.7503 2.4Z" stroke="white"/>
<path d="M111.934 28.8C112.094 29.44 112.174 30.24 112.174 31.2C112.174 32.12 112.094 32.92 111.934 33.6H99.9337C99.7737 32.92 99.6937 32.12 99.6937 31.2C99.6937 30.24 99.7737 29.44 99.9337 28.8H103.534C103.374 28.12 103.294 27.32 103.294 26.4C103.294 25.44 103.374 24.64 103.534 24C103.374 23.32 103.294 22.52 103.294 21.6C103.294 20.64 103.374 19.84 103.534 19.2C103.374 18.52 103.294 17.72 103.294 16.8C103.294 15.84 103.374 15.04 103.534 14.4C103.374 13.72 103.294 12.92 103.294 12C103.294 11.04 103.374 10.24 103.534 9.6C103.374 8.92 103.294 8.12 103.294 7.2C103.294 6.24 103.374 5.44 103.534 4.8H99.9337C99.7737 4.12 99.6937 3.32 99.6937 2.4C99.6937 1.44 99.7737 0.639999 99.9337 0H111.934C112.094 0.639999 112.174 1.44 112.174 2.4C112.174 3.32 112.094 4.12 111.934 4.8H108.334C108.494 5.44 108.574 6.24 108.574 7.2C108.574 8.12 108.494 8.92 108.334 9.6C108.494 10.24 108.574 11.04 108.574 12C108.574 12.92 108.494 13.72 108.334 14.4C108.494 15.04 108.574 15.84 108.574 16.8C108.574 17.72 108.494 18.52 108.334 19.2C108.494 19.84 108.574 20.64 108.574 21.6C108.574 22.52 108.494 23.32 108.334 24C108.494 24.64 108.574 25.44 108.574 26.4C108.574 27.32 108.494 28.12 108.334 28.8H111.934Z" stroke="white"/>
<path d="M139.557 24C139.717 24.64 139.797 25.44 139.797 26.4C139.797 27.32 139.717 28.12 139.557 28.8H137.157C137.317 29.44 137.397 30.24 137.397 31.2C137.397 32.12 137.317 32.92 137.157 33.6H125.157C124.997 32.92 124.917 32.12 124.917 31.2C124.917 30.24 124.997 29.44 125.157 28.8H122.757C122.597 28.12 122.517 27.32 122.517 26.4C122.517 25.44 122.597 24.64 122.757 24H120.357C120.197 23.32 120.117 22.52 120.117 21.6C120.117 20.64 120.197 19.84 120.357 19.2C120.197 18.52 120.117 17.72 120.117 16.8C120.117 15.84 120.197 15.04 120.357 14.4C120.197 13.72 120.117 12.92 120.117 12C120.117 11.04 120.197 10.24 120.357 9.6H122.757C122.597 8.92 122.517 8.12 122.517 7.2C122.517 6.24 122.597 5.44 122.757 4.8H125.157C124.997 4.12 124.917 3.32 124.917 2.4C124.917 1.44 124.997 0.639999 125.157 0H137.157C137.317 0.639999 137.397 1.44 137.397 2.4C137.397 3.32 137.317 4.12 137.157 4.8H139.557C139.717 5.44 139.797 6.24 139.797 7.2C139.797 8.12 139.717 8.92 139.557 9.6H134.757C134.597 8.92 134.517 8.12 134.517 7.2C134.517 6.24 134.597 5.44 134.757 4.8H127.557C127.717 5.44 127.797 6.24 127.797 7.2C127.797 8.12 127.717 8.92 127.557 9.6H125.157C125.317 10.24 125.397 11.04 125.397 12C125.397 12.92 125.317 13.72 125.157 14.4C125.317 15.04 125.397 15.84 125.397 16.8C125.397 17.72 125.317 18.52 125.157 19.2C125.317 19.84 125.397 20.64 125.397 21.6C125.397 22.52 125.317 23.32 125.157 24H127.557C127.717 24.64 127.797 25.44 127.797 26.4C127.797 27.32 127.717 28.12 127.557 28.8H134.757C134.597 28.12 134.517 27.32 134.517 26.4C134.517 25.44 134.597 24.64 134.757 24H139.557Z" stroke="white"/>
<path d="M163.821 26.4C163.821 27.32 163.741 28.12 163.581 28.8C163.741 29.44 163.821 30.24 163.821 31.2C163.821 32.12 163.741 32.92 163.581 33.6H158.781C158.621 32.92 158.541 32.12 158.541 31.2C158.541 30.24 158.621 29.44 158.781 28.8C158.621 28.12 158.541 27.32 158.541 26.4C158.541 25.44 158.621 24.64 158.781 24H149.181C149.341 24.64 149.421 25.44 149.421 26.4C149.421 27.32 149.341 28.12 149.181 28.8C149.341 29.44 149.421 30.24 149.421 31.2C149.421 32.12 149.341 32.92 149.181 33.6H144.381C144.221 32.92 144.141 32.12 144.141 31.2C144.141 30.24 144.221 29.44 144.381 28.8C144.221 28.12 144.141 27.32 144.141 26.4C144.141 25.44 144.221 24.64 144.381 24H146.181C146.021 23.32 145.941 22.52 145.941 21.6C145.941 20.64 146.021 19.84 146.181 19.2C146.021 18.52 145.941 17.72 145.941 16.8C145.941 15.84 146.021 15.04 146.181 14.4H147.381C147.221 13.72 147.141 12.92 147.141 12C147.141 11.04 147.221 10.24 147.381 9.6H149.181C149.021 8.92 148.941 8.12 148.941 7.2C148.941 6.24 149.021 5.44 149.181 4.8H150.381C150.221 4.12 150.141 3.32 150.141 2.4C150.141 1.44 150.221 0.639999 150.381 0H157.581C157.741 0.639999 157.821 1.44 157.821 2.4C157.821 3.32 157.741 4.12 157.581 4.8H158.781C158.941 5.44 159.021 6.24 159.021 7.2C159.021 8.12 158.941 8.92 158.781 9.6H160.581C160.741 10.24 160.821 11.04 160.821 12C160.821 12.92 160.741 13.72 160.581 14.4H161.781C161.941 15.04 162.021 15.84 162.021 16.8C162.021 17.72 161.941 18.52 161.781 19.2C161.941 19.84 162.021 20.64 162.021 21.6C162.021 22.52 161.941 23.32 161.781 24H163.581C163.741 24.64 163.821 25.44 163.821 26.4ZM156.981 19.2C156.821 18.52 156.741 17.72 156.741 16.8C156.741 15.84 156.821 15.04 156.981 14.4H155.781C155.621 13.72 155.541 12.92 155.541 12C155.541 11.04 155.621 10.24 155.781 9.6H152.181C152.341 10.24 152.421 11.04 152.421 12C152.421 12.92 152.341 13.72 152.181 14.4H150.981C151.141 15.04 151.221 15.84 151.221 16.8C151.221 17.72 151.141 18.52 150.981 19.2H156.981Z" stroke="white"/>
<path d="M187.604 28.8C187.764 29.44 187.844 30.24 187.844 31.2C187.844 32.12 187.764 32.92 187.604 33.6H170.804C170.644 32.92 170.564 32.12 170.564 31.2C170.564 30.24 170.644 29.44 170.804 28.8C170.644 28.12 170.564 27.32 170.564 26.4C170.564 25.44 170.644 24.64 170.804 24C170.644 23.32 170.564 22.52 170.564 21.6C170.564 20.64 170.644 19.84 170.804 19.2C170.644 18.52 170.564 17.72 170.564 16.8C170.564 15.84 170.644 15.04 170.804 14.4C170.644 13.72 170.564 12.92 170.564 12C170.564 11.04 170.644 10.24 170.804 9.6C170.644 8.92 170.564 8.12 170.564 7.2C170.564 6.24 170.644 5.44 170.804 4.8C170.644 4.12 170.564 3.32 170.564 2.4C170.564 1.44 170.644 0.639999 170.804 0H175.604C175.764 0.639999 175.844 1.44 175.844 2.4C175.844 3.32 175.764 4.12 175.604 4.8C175.764 5.44 175.844 6.24 175.844 7.2C175.844 8.12 175.764 8.92 175.604 9.6C175.764 10.24 175.844 11.04 175.844 12C175.844 12.92 175.764 13.72 175.604 14.4C175.764 15.04 175.844 15.84 175.844 16.8C175.844 17.72 175.764 18.52 175.604 19.2C175.764 19.84 175.844 20.64 175.844 21.6C175.844 22.52 175.764 23.32 175.604 24C175.764 24.64 175.844 25.44 175.844 26.4C175.844 27.32 175.764 28.12 175.604 28.8H187.604Z" stroke="white"/>
<path d="M19.44 65.2C19.6 65.84 19.68 66.64 19.68 67.6C19.68 68.52 19.6 69.32 19.44 70C19.6 70.64 19.68 71.44 19.68 72.4C19.68 73.32 19.6 74.12 19.44 74.8H17.04C17.2 75.44 17.28 76.24 17.28 77.2C17.28 78.12 17.2 78.92 17.04 79.6H2.64C2.48 78.92 2.4 78.12 2.4 77.2C2.4 76.24 2.48 75.44 2.64 74.8H0.24C0.08 74.12 0 73.32 0 72.4C0 71.44 0.08 70.64 0.24 70H5.04C5.2 70.64 5.28 71.44 5.28 72.4C5.28 73.32 5.2 74.12 5.04 74.8H14.64C14.48 74.12 14.4 73.32 14.4 72.4C14.4 71.44 14.48 70.64 14.64 70C14.48 69.32 14.4 68.52 14.4 67.6C14.4 66.64 14.48 65.84 14.64 65.2H2.64C2.48 64.52 2.4 63.72 2.4 62.8C2.4 61.84 2.48 61.04 2.64 60.4H0.24C0.08 59.72 0 58.92 0 58C0 57.04 0.08 56.24 0.24 55.6C0.08 54.92 0 54.12 0 53.2C0 52.24 0.08 51.44 0.24 50.8H2.64C2.48 50.12 2.4 49.32 2.4 48.4C2.4 47.44 2.48 46.64 2.64 46H17.04C17.2 46.64 17.28 47.44 17.28 48.4C17.28 49.32 17.2 50.12 17.04 50.8H19.44C19.6 51.44 19.68 52.24 19.68 53.2C19.68 54.12 19.6 54.92 19.44 55.6H14.64C14.48 54.92 14.4 54.12 14.4 53.2C14.4 52.24 14.48 51.44 14.64 50.8H5.04C5.2 51.44 5.28 52.24 5.28 53.2C5.28 54.12 5.2 54.92 5.04 55.6C5.2 56.24 5.28 57.04 5.28 58C5.28 58.92 5.2 59.72 5.04 60.4H17.04C17.2 61.04 17.28 61.84 17.28 62.8C17.28 63.72 17.2 64.52 17.04 65.2H19.44Z" stroke="white"/>
<path d="M43.4634 70C43.6234 70.64 43.7034 71.44 43.7034 72.4C43.7034 73.32 43.6234 74.12 43.4634 74.8H41.0634C41.2234 75.44 41.3034 76.24 41.3034 77.2C41.3034 78.12 41.2234 78.92 41.0634 79.6H29.0634C28.9034 78.92 28.8234 78.12 28.8234 77.2C28.8234 76.24 28.9034 75.44 29.0634 74.8H26.6634C26.5034 74.12 26.4234 73.32 26.4234 72.4C26.4234 71.44 26.5034 70.64 26.6634 70H24.2634C24.1034 69.32 24.0234 68.52 24.0234 67.6C24.0234 66.64 24.1034 65.84 24.2634 65.2C24.1034 64.52 24.0234 63.72 24.0234 62.8C24.0234 61.84 24.1034 61.04 24.2634 60.4C24.1034 59.72 24.0234 58.92 24.0234 58C24.0234 57.04 24.1034 56.24 24.2634 55.6H26.6634C26.5034 54.92 26.4234 54.12 26.4234 53.2C26.4234 52.24 26.5034 51.44 26.6634 50.8H29.0634C28.9034 50.12 28.8234 49.32 28.8234 48.4C28.8234 47.44 28.9034 46.64 29.0634 46H41.0634C41.2234 46.64 41.3034 47.44 41.3034 48.4C41.3034 49.32 41.2234 50.12 41.0634 50.8H43.4634C43.6234 51.44 43.7034 52.24 43.7034 53.2C43.7034 54.12 43.6234 54.92 43.4634 55.6H38.6634C38.5034 54.92 38.4234 54.12 38.4234 53.2C38.4234 52.24 38.5034 51.44 38.6634 50.8H31.4634C31.6234 51.44 31.7034 52.24 31.7034 53.2C31.7034 54.12 31.6234 54.92 31.4634 55.6H29.0634C29.2234 56.24 29.3034 57.04 29.3034 58C29.3034 58.92 29.2234 59.72 29.0634 60.4C29.2234 61.04 29.3034 61.84 29.3034 62.8C29.3034 63.72 29.2234 64.52 29.0634 65.2C29.2234 65.84 29.3034 66.64 29.3034 67.6C29.3034 68.52 29.2234 69.32 29.0634 70H31.4634C31.6234 70.64 31.7034 71.44 31.7034 72.4C31.7034 73.32 31.6234 74.12 31.4634 74.8H38.6634C38.5034 74.12 38.4234 73.32 38.4234 72.4C38.4234 71.44 38.5034 70.64 38.6634 70H43.4634Z" stroke="white"/>
<path d="M67.4869 74.8C67.6469 75.44 67.7269 76.24 67.7269 77.2C67.7269 78.12 67.6469 78.92 67.4869 79.6H62.6869C62.5269 78.92 62.4469 78.12 62.4469 77.2C62.4469 76.24 62.5269 75.44 62.6869 74.8H60.8869C60.7269 74.12 60.6469 73.32 60.6469 72.4C60.6469 71.44 60.7269 70.64 60.8869 70H59.0869C58.9269 69.32 58.8469 68.52 58.8469 67.6C58.8469 66.64 58.9269 65.84 59.0869 65.2H53.0869C53.2469 65.84 53.3269 66.64 53.3269 67.6C53.3269 68.52 53.2469 69.32 53.0869 70C53.2469 70.64 53.3269 71.44 53.3269 72.4C53.3269 73.32 53.2469 74.12 53.0869 74.8C53.2469 75.44 53.3269 76.24 53.3269 77.2C53.3269 78.12 53.2469 78.92 53.0869 79.6H48.2869C48.1269 78.92 48.0469 78.12 48.0469 77.2C48.0469 76.24 48.1269 75.44 48.2869 74.8C48.1269 74.12 48.0469 73.32 48.0469 72.4C48.0469 71.44 48.1269 70.64 48.2869 70C48.1269 69.32 48.0469 68.52 48.0469 67.6C48.0469 66.64 48.1269 65.84 48.2869 65.2C48.1269 64.52 48.0469 63.72 48.0469 62.8C48.0469 61.84 48.1269 61.04 48.2869 60.4C48.1269 59.72 48.0469 58.92 48.0469 58C48.0469 57.04 48.1269 56.24 48.2869 55.6C48.1269 54.92 48.0469 54.12 48.0469 53.2C48.0469 52.24 48.1269 51.44 48.2869 50.8C48.1269 50.12 48.0469 49.32 48.0469 48.4C48.0469 47.44 48.1269 46.64 48.2869 46H65.0869C65.2469 46.64 65.3269 47.44 65.3269 48.4C65.3269 49.32 65.2469 50.12 65.0869 50.8H67.4869C67.6469 51.44 67.7269 52.24 67.7269 53.2C67.7269 54.12 67.6469 54.92 67.4869 55.6H66.2869C66.4469 56.24 66.5269 57.04 66.5269 58C66.5269 58.92 66.4469 59.72 66.2869 60.4H62.6869C62.8469 61.04 62.9269 61.84 62.9269 62.8C62.9269 63.72 62.8469 64.52 62.6869 65.2H63.8869C64.0469 65.84 64.1269 66.64 64.1269 67.6C64.1269 68.52 64.0469 69.32 63.8869 70H65.6869C65.8469 70.64 65.9269 71.44 65.9269 72.4C65.9269 73.32 65.8469 74.12 65.6869 74.8H67.4869ZM61.4869 60.4C61.3269 59.72 61.2469 58.92 61.2469 58C61.2469 57.04 61.3269 56.24 61.4869 55.6C61.3269 54.92 61.2469 54.12 61.2469 53.2C61.2469 52.24 61.3269 51.44 61.4869 50.8H53.0869C53.2469 51.44 53.3269 52.24 53.3269 53.2C53.3269 54.12 53.2469 54.92 53.0869 55.6C53.2469 56.24 53.3269 57.04 53.3269 58C53.3269 58.92 53.2469 59.72 53.0869 60.4H61.4869Z" stroke="white"/>
<path d="M91.7503 72.4C91.7503 73.32 91.6703 74.12 91.5103 74.8C91.6703 75.44 91.7503 76.24 91.7503 77.2C91.7503 78.12 91.6703 78.92 91.5103 79.6H86.7103C86.5503 78.92 86.4703 78.12 86.4703 77.2C86.4703 76.24 86.5503 75.44 86.7103 74.8C86.5503 74.12 86.4703 73.32 86.4703 72.4C86.4703 71.44 86.5503 70.64 86.7103 70H77.1103C77.2703 70.64 77.3503 71.44 77.3503 72.4C77.3503 73.32 77.2703 74.12 77.1103 74.8C77.2703 75.44 77.3503 76.24 77.3503 77.2C77.3503 78.12 77.2703 78.92 77.1103 79.6H72.3103C72.1503 78.92 72.0703 78.12 72.0703 77.2C72.0703 76.24 72.1503 75.44 72.3103 74.8C72.1503 74.12 72.0703 73.32 72.0703 72.4C72.0703 71.44 72.1503 70.64 72.3103 70H74.1103C73.9503 69.32 73.8703 68.52 73.8703 67.6C73.8703 66.64 73.9503 65.84 74.1103 65.2C73.9503 64.52 73.8703 63.72 73.8703 62.8C73.8703 61.84 73.9503 61.04 74.1103 60.4H75.3103C75.1503 59.72 75.0703 58.92 75.0703 58C75.0703 57.04 75.1503 56.24 75.3103 55.6H77.1103C76.9503 54.92 76.8703 54.12 76.8703 53.2C76.8703 52.24 76.9503 51.44 77.1103 50.8H78.3103C78.1503 50.12 78.0703 49.32 78.0703 48.4C78.0703 47.44 78.1503 46.64 78.3103 46H85.5103C85.6703 46.64 85.7503 47.44 85.7503 48.4C85.7503 49.32 85.6703 50.12 85.5103 50.8H86.7103C86.8703 51.44 86.9503 52.24 86.9503 53.2C86.9503 54.12 86.8703 54.92 86.7103 55.6H88.5103C88.6703 56.24 88.7503 57.04 88.7503 58C88.7503 58.92 88.6703 59.72 88.5103 60.4H89.7103C89.8703 61.04 89.9503 61.84 89.9503 62.8C89.9503 63.72 89.8703 64.52 89.7103 65.2C89.8703 65.84 89.9503 66.64 89.9503 67.6C89.9503 68.52 89.8703 69.32 89.7103 70H91.5103C91.6703 70.64 91.7503 71.44 91.7503 72.4ZM84.9103 65.2C84.7503 64.52 84.6703 63.72 84.6703 62.8C84.6703 61.84 84.7503 61.04 84.9103 60.4H83.7103C83.5503 59.72 83.4703 58.92 83.4703 58C83.4703 57.04 83.5503 56.24 83.7103 55.6H80.1103C80.2703 56.24 80.3503 57.04 80.3503 58C80.3503 58.92 80.2703 59.72 80.1103 60.4H78.9103C79.0703 61.04 79.1503 61.84 79.1503 62.8C79.1503 63.72 79.0703 64.52 78.9103 65.2H84.9103Z" stroke="white"/>
<path d="M115.774 53.2C115.774 54.12 115.694 54.92 115.534 55.6C115.694 56.24 115.774 57.04 115.774 58C115.774 58.92 115.694 59.72 115.534 60.4H113.134C113.294 61.04 113.374 61.84 113.374 62.8C113.374 63.72 113.294 64.52 113.134 65.2H101.134C101.294 65.84 101.374 66.64 101.374 67.6C101.374 68.52 101.294 69.32 101.134 70C101.294 70.64 101.374 71.44 101.374 72.4C101.374 73.32 101.294 74.12 101.134 74.8C101.294 75.44 101.374 76.24 101.374 77.2C101.374 78.12 101.294 78.92 101.134 79.6H96.3337C96.1737 78.92 96.0938 78.12 96.0938 77.2C96.0938 76.24 96.1737 75.44 96.3337 74.8C96.1737 74.12 96.0938 73.32 96.0938 72.4C96.0938 71.44 96.1737 70.64 96.3337 70C96.1737 69.32 96.0938 68.52 96.0938 67.6C96.0938 66.64 96.1737 65.84 96.3337 65.2C96.1737 64.52 96.0938 63.72 96.0938 62.8C96.0938 61.84 96.1737 61.04 96.3337 60.4C96.1737 59.72 96.0938 58.92 96.0938 58C96.0938 57.04 96.1737 56.24 96.3337 55.6C96.1737 54.92 96.0938 54.12 96.0938 53.2C96.0938 52.24 96.1737 51.44 96.3337 50.8C96.1737 50.12 96.0938 49.32 96.0938 48.4C96.0938 47.44 96.1737 46.64 96.3337 46H113.134C113.294 46.64 113.374 47.44 113.374 48.4C113.374 49.32 113.294 50.12 113.134 50.8H115.534C115.694 51.44 115.774 52.24 115.774 53.2ZM110.734 60.4C110.574 59.72 110.494 58.92 110.494 58C110.494 57.04 110.574 56.24 110.734 55.6C110.574 54.92 110.494 54.12 110.494 53.2C110.494 52.24 110.574 51.44 110.734 50.8H101.134C101.294 51.44 101.374 52.24 101.374 53.2C101.374 54.12 101.294 54.92 101.134 55.6C101.294 56.24 101.374 57.04 101.374 58C101.374 58.92 101.294 59.72 101.134 60.4H110.734Z" stroke="white"/>
<path d="M139.797 58C139.797 58.92 139.717 59.72 139.557 60.4H137.157C137.317 61.04 137.397 61.84 137.397 62.8C137.397 63.72 137.317 64.52 137.157 65.2H139.557C139.717 65.84 139.797 66.64 139.797 67.6C139.797 68.52 139.717 69.32 139.557 70C139.717 70.64 139.797 71.44 139.797 72.4C139.797 73.32 139.717 74.12 139.557 74.8H137.157C137.317 75.44 137.397 76.24 137.397 77.2C137.397 78.12 137.317 78.92 137.157 79.6H120.357C120.197 78.92 120.117 78.12 120.117 77.2C120.117 76.24 120.197 75.44 120.357 74.8C120.197 74.12 120.117 73.32 120.117 72.4C120.117 71.44 120.197 70.64 120.357 70C120.197 69.32 120.117 68.52 120.117 67.6C120.117 66.64 120.197 65.84 120.357 65.2C120.197 64.52 120.117 63.72 120.117 62.8C120.117 61.84 120.197 61.04 120.357 60.4C120.197 59.72 120.117 58.92 120.117 58C120.117 57.04 120.197 56.24 120.357 55.6C120.197 54.92 120.117 54.12 120.117 53.2C120.117 52.24 120.197 51.44 120.357 50.8C120.197 50.12 120.117 49.32 120.117 48.4C120.117 47.44 120.197 46.64 120.357 46H137.157C137.317 46.64 137.397 47.44 137.397 48.4C137.397 49.32 137.317 50.12 137.157 50.8H139.557C139.717 51.44 139.797 52.24 139.797 53.2C139.797 54.12 139.717 54.92 139.557 55.6C139.717 56.24 139.797 57.04 139.797 58ZM134.757 60.4C134.597 59.72 134.517 58.92 134.517 58C134.517 57.04 134.597 56.24 134.757 55.6C134.597 54.92 134.517 54.12 134.517 53.2C134.517 52.24 134.597 51.44 134.757 50.8H125.157C125.317 51.44 125.397 52.24 125.397 53.2C125.397 54.12 125.317 54.92 125.157 55.6C125.317 56.24 125.397 57.04 125.397 58C125.397 58.92 125.317 59.72 125.157 60.4H134.757ZM134.757 70C134.597 69.32 134.517 68.52 134.517 67.6C134.517 66.64 134.597 65.84 134.757 65.2H125.157C125.317 65.84 125.397 66.64 125.397 67.6C125.397 68.52 125.317 69.32 125.157 70C125.317 70.64 125.397 71.44 125.397 72.4C125.397 73.32 125.317 74.12 125.157 74.8H134.757C134.597 74.12 134.517 73.32 134.517 72.4C134.517 71.44 134.597 70.64 134.757 70Z" stroke="white"/>
<path d="M163.581 60.4C163.741 61.04 163.821 61.84 163.821 62.8C163.821 63.72 163.741 64.52 163.581 65.2C163.741 65.84 163.821 66.64 163.821 67.6C163.821 68.52 163.741 69.32 163.581 70H161.781C161.941 70.64 162.021 71.44 162.021 72.4C162.021 73.32 161.941 74.12 161.781 74.8H158.781C158.941 75.44 159.021 76.24 159.021 77.2C159.021 78.12 158.941 78.92 158.781 79.6H149.181C149.021 78.92 148.941 78.12 148.941 77.2C148.941 76.24 149.021 75.44 149.181 74.8H146.181C146.021 74.12 145.941 73.32 145.941 72.4C145.941 71.44 146.021 70.64 146.181 70H144.381C144.221 69.32 144.141 68.52 144.141 67.6C144.141 66.64 144.221 65.84 144.381 65.2C144.221 64.52 144.141 63.72 144.141 62.8C144.141 61.84 144.221 61.04 144.381 60.4C144.221 59.72 144.141 58.92 144.141 58C144.141 57.04 144.221 56.24 144.381 55.6H146.181C146.021 54.92 145.941 54.12 145.941 53.2C145.941 52.24 146.021 51.44 146.181 50.8H149.181C149.021 50.12 148.941 49.32 148.941 48.4C148.941 47.44 149.021 46.64 149.181 46H158.781C158.941 46.64 159.021 47.44 159.021 48.4C159.021 49.32 158.941 50.12 158.781 50.8H161.781C161.941 51.44 162.021 52.24 162.021 53.2C162.021 54.12 161.941 54.92 161.781 55.6H163.581C163.741 56.24 163.821 57.04 163.821 58C163.821 58.92 163.741 59.72 163.581 60.4ZM158.781 70C158.621 69.32 158.541 68.52 158.541 67.6C158.541 66.64 158.621 65.84 158.781 65.2C158.621 64.52 158.541 63.72 158.541 62.8C158.541 61.84 158.621 61.04 158.781 60.4C158.621 59.72 158.541 58.92 158.541 58C158.541 57.04 158.621 56.24 158.781 55.6H156.981C156.821 54.92 156.741 54.12 156.741 53.2C156.741 52.24 156.821 51.44 156.981 50.8H150.981C151.141 51.44 151.221 52.24 151.221 53.2C151.221 54.12 151.141 54.92 150.981 55.6H149.181C149.341 56.24 149.421 57.04 149.421 58C149.421 58.92 149.341 59.72 149.181 60.4C149.341 61.04 149.421 61.84 149.421 62.8C149.421 63.72 149.341 64.52 149.181 65.2C149.341 65.84 149.421 66.64 149.421 67.6C149.421 68.52 149.341 69.32 149.181 70H150.981C151.141 70.64 151.221 71.44 151.221 72.4C151.221 73.32 151.141 74.12 150.981 74.8H156.981C156.821 74.12 156.741 73.32 156.741 72.4C156.741 71.44 156.821 70.64 156.981 70H158.781Z" stroke="white"/>
<path d="M187.604 60.4C187.764 61.04 187.844 61.84 187.844 62.8C187.844 63.72 187.764 64.52 187.604 65.2C187.764 65.84 187.844 66.64 187.844 67.6C187.844 68.52 187.764 69.32 187.604 70H185.804C185.964 70.64 186.044 71.44 186.044 72.4C186.044 73.32 185.964 74.12 185.804 74.8H182.804C182.964 75.44 183.044 76.24 183.044 77.2C183.044 78.12 182.964 78.92 182.804 79.6H173.204C173.044 78.92 172.964 78.12 172.964 77.2C172.964 76.24 173.044 75.44 173.204 74.8H170.204C170.044 74.12 169.964 73.32 169.964 72.4C169.964 71.44 170.044 70.64 170.204 70H168.404C168.244 69.32 168.164 68.52 168.164 67.6C168.164 66.64 168.244 65.84 168.404 65.2C168.244 64.52 168.164 63.72 168.164 62.8C168.164 61.84 168.244 61.04 168.404 60.4C168.244 59.72 168.164 58.92 168.164 58C168.164 57.04 168.244 56.24 168.404 55.6H170.204C170.044 54.92 169.964 54.12 169.964 53.2C169.964 52.24 170.044 51.44 170.204 50.8H173.204C173.044 50.12 172.964 49.32 172.964 48.4C172.964 47.44 173.044 46.64 173.204 46H182.804C182.964 46.64 183.044 47.44 183.044 48.4C183.044 49.32 182.964 50.12 182.804 50.8H185.804C185.964 51.44 186.044 52.24 186.044 53.2C186.044 54.12 185.964 54.92 185.804 55.6H187.604C187.764 56.24 187.844 57.04 187.844 58C187.844 58.92 187.764 59.72 187.604 60.4ZM182.804 70C182.644 69.32 182.564 68.52 182.564 67.6C182.564 66.64 182.644 65.84 182.804 65.2C182.644 64.52 182.564 63.72 182.564 62.8C182.564 61.84 182.644 61.04 182.804 60.4C182.644 59.72 182.564 58.92 182.564 58C182.564 57.04 182.644 56.24 182.804 55.6H181.004C180.844 54.92 180.764 54.12 180.764 53.2C180.764 52.24 180.844 51.44 181.004 50.8H175.004C175.164 51.44 175.244 52.24 175.244 53.2C175.244 54.12 175.164 54.92 175.004 55.6H173.204C173.364 56.24 173.444 57.04 173.444 58C173.444 58.92 173.364 59.72 173.204 60.4C173.364 61.04 173.444 61.84 173.444 62.8C173.444 63.72 173.364 64.52 173.204 65.2C173.364 65.84 173.444 66.64 173.444 67.6C173.444 68.52 173.364 69.32 173.204 70H175.004C175.164 70.64 175.244 71.44 175.244 72.4C175.244 73.32 175.164 74.12 175.004 74.8H181.004C180.844 74.12 180.764 73.32 180.764 72.4C180.764 71.44 180.844 70.64 181.004 70H182.804Z" stroke="white"/>
<path d="M211.628 74.8C211.788 75.44 211.867 76.24 211.867 77.2C211.867 78.12 211.788 78.92 211.628 79.6H206.827C206.668 78.92 206.587 78.12 206.587 77.2C206.587 76.24 206.668 75.44 206.827 74.8H205.027C204.867 74.12 204.787 73.32 204.787 72.4C204.787 71.44 204.867 70.64 205.027 70H201.427C201.267 69.32 201.188 68.52 201.188 67.6C201.188 66.64 201.267 65.84 201.427 65.2H197.227C197.387 65.84 197.467 66.64 197.467 67.6C197.467 68.52 197.387 69.32 197.227 70C197.387 70.64 197.467 71.44 197.467 72.4C197.467 73.32 197.387 74.12 197.227 74.8C197.387 75.44 197.467 76.24 197.467 77.2C197.467 78.12 197.387 78.92 197.227 79.6H192.427C192.267 78.92 192.188 78.12 192.188 77.2C192.188 76.24 192.267 75.44 192.427 74.8C192.267 74.12 192.188 73.32 192.188 72.4C192.188 71.44 192.267 70.64 192.427 70C192.267 69.32 192.188 68.52 192.188 67.6C192.188 66.64 192.267 65.84 192.427 65.2C192.267 64.52 192.188 63.72 192.188 62.8C192.188 61.84 192.267 61.04 192.427 60.4C192.267 59.72 192.188 58.92 192.188 58C192.188 57.04 192.267 56.24 192.427 55.6C192.267 54.92 192.188 54.12 192.188 53.2C192.188 52.24 192.267 51.44 192.427 50.8C192.267 50.12 192.188 49.32 192.188 48.4C192.188 47.44 192.267 46.64 192.427 46H197.227C197.387 46.64 197.467 47.44 197.467 48.4C197.467 49.32 197.387 50.12 197.227 50.8C197.387 51.44 197.467 52.24 197.467 53.2C197.467 54.12 197.387 54.92 197.227 55.6C197.387 56.24 197.467 57.04 197.467 58C197.467 58.92 197.387 59.72 197.227 60.4H201.427C201.267 59.72 201.188 58.92 201.188 58C201.188 57.04 201.267 56.24 201.427 55.6H205.027C204.867 54.92 204.787 54.12 204.787 53.2C204.787 52.24 204.867 51.44 205.027 50.8H206.827C206.668 50.12 206.587 49.32 206.587 48.4C206.587 47.44 206.668 46.64 206.827 46H211.628C211.788 46.64 211.867 47.44 211.867 48.4C211.867 49.32 211.788 50.12 211.628 50.8H209.827C209.987 51.44 210.068 52.24 210.068 53.2C210.068 54.12 209.987 54.92 209.827 55.6H206.227C206.387 56.24 206.467 57.04 206.467 58C206.467 58.92 206.387 59.72 206.227 60.4H203.227C203.387 61.04 203.467 61.84 203.467 62.8C203.467 63.72 203.387 64.52 203.227 65.2H206.227C206.387 65.84 206.467 66.64 206.467 67.6C206.467 68.52 206.387 69.32 206.227 70H209.827C209.987 70.64 210.068 71.44 210.068 72.4C210.068 73.32 209.987 74.12 209.827 74.8H211.628Z" stroke="white"/>
</svg>
