<svg width="1440" height="1024" viewBox="0 0 1440 1024" fill="none" xmlns="http://www.w3.org/2000/svg">
<path d="M325.466 460H311.403V353.359H325.466V460ZM459.206 364.932H424.929V460H410.939V364.932H376.735V353.359H459.206V364.932ZM556.984 460H542.849V410.708H489.089V460H475.026V353.359H489.089V399.209H542.849V353.359H556.984V460ZM663.991 410.122C663.991 420.571 662.233 429.702 658.718 437.515C655.202 445.278 650.222 451.211 643.776 455.312C637.331 459.414 629.812 461.465 621.218 461.465C612.819 461.465 605.373 459.414 598.879 455.312C592.385 451.162 587.331 445.278 583.718 437.661C580.153 429.995 578.322 421.133 578.225 411.074V403.384C578.225 393.13 580.007 384.072 583.571 376.211C587.136 368.35 592.165 362.344 598.659 358.193C605.202 353.994 612.673 351.895 621.071 351.895C629.616 351.895 637.136 353.97 643.63 358.12C650.173 362.222 655.202 368.203 658.718 376.064C662.233 383.877 663.991 392.983 663.991 403.384V410.122ZM650.002 403.237C650.002 390.591 647.463 380.898 642.385 374.16C637.307 367.373 630.202 363.979 621.071 363.979C612.185 363.979 605.178 367.373 600.051 374.16C594.973 380.898 592.36 390.273 592.214 402.285V410.122C592.214 422.378 594.777 432.021 599.904 439.053C605.08 446.035 612.185 449.526 621.218 449.526C630.3 449.526 637.331 446.23 642.312 439.639C647.292 432.998 649.855 423.501 650.002 411.147V403.237ZM760.158 353.359V425.869C760.109 435.928 756.936 444.155 750.637 450.552C744.387 456.948 735.891 460.537 725.148 461.318L721.413 461.465C709.743 461.465 700.441 458.315 693.508 452.017C686.574 445.718 683.059 437.051 682.961 426.016V353.359H696.877V425.576C696.877 433.291 699.001 439.297 703.249 443.594C707.497 447.842 713.552 449.966 721.413 449.966C729.372 449.966 735.451 447.842 739.65 443.594C743.898 439.346 746.022 433.364 746.022 425.649V353.359H760.158ZM861.086 446.011C857.473 451.187 852.419 455.068 845.925 457.656C839.479 460.195 831.96 461.465 823.366 461.465C814.675 461.465 806.96 459.438 800.222 455.386C793.483 451.284 788.259 445.474 784.548 437.954C780.886 430.435 779.006 421.719 778.908 411.807V402.505C778.908 386.44 782.644 373.989 790.114 365.151C797.634 356.313 808.181 351.895 821.755 351.895C832.888 351.895 841.848 354.751 848.635 360.464C855.422 366.128 859.572 374.185 861.086 384.634H847.023C844.387 370.522 835.988 363.467 821.828 363.467C812.404 363.467 805.251 366.787 800.368 373.428C795.534 380.02 793.093 389.59 793.044 402.139V410.854C793.044 422.817 795.778 432.339 801.247 439.419C806.716 446.45 814.113 449.966 823.439 449.966C828.713 449.966 833.327 449.38 837.282 448.208C841.237 447.036 844.509 445.059 847.097 442.275V418.325H822.414V406.899H861.086V446.011ZM966.555 460H952.419V410.708H898.659V460H884.597V353.359H898.659V399.209H952.419V353.359H966.555V460ZM1043.83 460H1029.76V353.359H1043.83V460ZM1128.42 412.905H1083.67V460H1069.61V353.359H1135.67V364.932H1083.67V401.406H1128.42V412.905Z" fill="black"/>
<path d="M420.469 558.359L445.518 659.067L505.649 558.359H511.509L493.052 665H489.097L506.455 564.878L446.396 665H443.32L417.905 564.731L400.547 665H396.592L415.049 558.359H420.469ZM583.579 633.14H533.042L515.977 665H511.582L568.564 558.433L573.325 558.359L593.833 665H589.658L583.579 633.14ZM535.093 629.185H582.773L570.469 563.34L535.093 629.185ZM685.752 665H681.943L632.432 564.951L615.073 665H611.045L629.355 558.359H633.237L682.822 658.188L700.107 558.359H704.062L685.752 665ZM747.642 615.415L734.604 628.965V665H720.542V558.359H734.604V611.094L781.992 558.359H798.984L757.017 605.454L802.28 665H785.435L747.642 615.415ZM829.673 665H815.61V558.359H829.673V665ZM937.412 665H923.276L869.59 582.822V665H855.454V558.359H869.59L923.423 640.903V558.359H937.412V665ZM962.388 665V558.359H992.49C1001.77 558.359 1009.97 560.41 1017.1 564.512C1024.23 568.613 1029.72 574.448 1033.58 582.017C1037.49 589.585 1039.46 598.276 1039.51 608.091V614.902C1039.51 624.961 1037.56 633.774 1033.65 641.343C1029.79 648.911 1024.25 654.722 1017.03 658.774C1009.85 662.827 1001.47 664.902 991.904 665H962.388ZM976.45 569.932V653.501H991.245C1002.08 653.501 1010.51 650.132 1016.51 643.394C1022.57 636.655 1025.6 627.061 1025.6 614.609V608.384C1025.6 596.274 1022.74 586.875 1017.03 580.186C1011.36 573.447 1003.31 570.029 992.856 569.932H976.45Z" fill="black"/>
</svg>
