<svg width="1440" height="1024" viewBox="0 0 1440 1024" fill="none" xmlns="http://www.w3.org/2000/svg">
<path d="M1214.9 383H1156V395.227H1179.13V487H1191.63V395.227H1214.9V383Z" fill="#9CD8CD"/>
<path d="M1240.26 383H1228.04V487H1240.26V440.97H1274.29V487H1286.8V383H1274.29V428.743H1240.26V383Z" fill="#9CD8CD"/>
<path d="M1363 383H1307.15V487H1363V474.629H1319.66V440.97H1351.51V428.743H1319.66V395.227H1363V383Z" fill="#9CD8CD"/>
<path d="M1228.82 527H1198.9C1182.93 527.147 1170 540.342 1170 556.615C1170 572.889 1183.22 586.084 1199.19 586.084C1208.63 586.084 1216.33 593.855 1216.33 603.385C1216.33 612.621 1208.92 620.245 1199.63 620.391C1199.48 620.538 1199.34 620.391 1199.19 620.391H1170V633H1199.19H1199.63C1215.75 632.707 1228.82 619.512 1228.82 603.385C1228.82 586.964 1215.46 573.622 1199.19 573.622C1190.04 573.622 1182.34 565.999 1182.34 556.615C1182.34 547.232 1189.75 539.755 1198.9 539.462H1228.82V527Z" fill="#9CD8CD"/>
<path d="M1257.33 527H1244.84V633H1257.33L1274.18 594.441L1291.46 633H1303.95L1280.42 580.22L1303.95 527H1291.61L1257.33 604.264V527Z" fill="#9CD8CD"/>
<path d="M1365 527H1352.51L1335.37 565.852L1318.24 527H1305.75L1329.27 580.367V633H1341.62V579.927L1365 527Z" fill="#9CD8CD"/>
<path d="M214.237 383H74V412.391H129.056V633H158.835V412.391H214.237V383Z" fill="#9CD8CD"/>
<path d="M308.53 383.346C269.748 383.346 238.584 414.466 238.584 453.194V564.189C239.277 602.225 270.094 633 308.53 633C346.965 633 377.783 602.225 378.475 564.189V453.194C378.475 414.466 347.312 383.346 308.53 383.346ZM349.389 563.152C349.389 585.628 331.037 603.954 308.53 603.954C286.023 603.954 267.671 585.628 267.671 563.152V453.194C267.671 430.718 286.023 412.737 308.53 412.737C331.037 412.737 349.389 430.718 349.389 453.194V563.152Z" fill="#9CD8CD"/>
<path d="M556.423 383H527.337V563.152C527.337 585.628 508.985 603.954 486.478 603.954C463.97 603.954 445.618 585.628 445.618 563.152V383H416.532V564.189C416.532 602.225 448.042 633 486.478 633C524.913 633 556.423 602.225 556.423 564.189V383Z" fill="#9CD8CD"/>
<path d="M601.581 383.346H657.676C703.729 383.346 741.819 420.69 741.819 466.679C741.819 497.454 724.852 524.425 700.267 538.947L741.819 631.617L740.78 631.963V633H713.079V631.963L712.04 632.308L674.643 548.629C669.103 549.667 663.563 550.358 657.676 550.358H631.014V633H601.581V383.346ZM688.148 511.631C702.344 501.949 712.04 485.351 712.04 466.679C712.04 436.942 687.455 412.737 657.676 412.737H643.826L688.148 511.631ZM631.014 520.967H657.676C659.061 520.967 660.793 520.967 662.178 520.621L631.014 450.773V520.967Z" fill="#9CD8CD"/>
<path d="M915.457 383H782.491V633H915.457V603.263H812.27V522.35H888.102V492.959H812.27V412.391H915.457V383Z" fill="#9CD8CD"/>
<path d="M1016.09 383H946.494V633H1015.05C1053.49 633 1085 601.88 1085 564.189V451.811C1085 413.775 1053.84 383 1016.09 383ZM976.273 603.263V412.391H1016.09C1037.56 412.391 1055.22 430.026 1055.22 451.811V564.189C1055.22 585.628 1037.22 603.263 1015.05 603.263H976.273Z" fill="#9CD8CD"/>
</svg>
