<svg width="1440" height="1024" viewBox="0 0 1440 1024" fill="none" xmlns="http://www.w3.org/2000/svg">
<path d="M434.65 471V460.8H415V471H434.65ZM425.2 527.25V479.55H415V527.25H425.2ZM434.65 546V535.8H415V546H434.65ZM491.779 471V460.8H434.629V471H491.779ZM482.329 489.75V479.55H434.629V489.75H453.379V527.25H463.579V489.75H482.329ZM491.779 546V535.8H434.629V546H491.779ZM586.408 471V460.8H529.258V471H586.408ZM576.958 527.25V479.55H566.758V488.85H557.458V498.3H548.908V488.85H539.458V479.55H529.258V527.25H539.458V499.05H548.008V508.5H558.208V499.05H566.758V527.25H576.958ZM586.408 546V535.8H529.258V546H586.408ZM624.787 471V460.8H586.387V471H624.787ZM615.337 527.25V517.05H596.587V508.5H615.337V498.3H596.587V489.75H615.337V479.55H586.387V527.25H615.337ZM624.787 546V535.8H586.387V546H624.787ZM672.466 471V460.8H624.766V471H672.466ZM634.966 489.75H652.966V507.6H634.966V489.75ZM634.966 527.25V517.8H652.966V527.25H663.166V488.85H653.716V479.55H634.216V488.85H624.766V527.25H634.966ZM672.466 546V535.8H624.766V546H672.466ZM720.22 471V460.8H672.52V471H720.22ZM710.92 527.25V479.55H700.72V498.3H692.17V488.85H682.72V479.55H672.52V527.25H682.72V499.05H691.27V508.5H700.72V527.25H710.92ZM720.22 546V535.8H672.52V546H720.22ZM777.423 471V460.8H720.273V471H777.423ZM767.973 489.75V479.55H720.273V489.75H739.023V527.25H749.223V489.75H767.973ZM777.423 546V535.8H720.273V546H777.423ZM872.052 471V460.8H814.902V471H872.052ZM862.602 489.75V479.55H814.902V489.75H833.652V527.25H843.852V489.75H862.602ZM872.052 546V535.8H814.902V546H872.052ZM919.731 471V460.8H872.031V471H919.731ZM910.431 527.25V479.55H900.231V498.3H882.231V479.55H872.031V527.25H882.231V508.5H900.231V527.25H910.431ZM919.731 546V535.8H872.031V546H919.731ZM967.485 471V460.8H919.785V471H967.485ZM929.985 489.75H947.985V507.6H929.985V489.75ZM929.985 527.25V517.8H947.985V527.25H958.185V488.85H948.735V479.55H929.235V488.85H919.785V527.25H929.985ZM967.485 546V535.8H919.785V546H967.485ZM1024.69 471V460.8H967.539V471H1024.69ZM1015.24 489.75V479.55H967.539V489.75H986.289V527.25H996.489V489.75H1015.24ZM1024.69 546V535.8H967.539V546H1024.69Z" fill="#DD686C"/>
</svg>
