<svg width="1440" height="1024" viewBox="0 0 1440 1024" fill="none" xmlns="http://www.w3.org/2000/svg">
<path d="M84.6938 535V485.945H100.731C106.054 485.945 110.052 487.046 112.725 489.247C115.42 491.448 116.768 494.705 116.768 499.018C116.768 501.309 116.117 503.341 114.814 505.116C113.511 506.868 111.737 508.227 109.491 509.192C112.141 509.934 114.23 511.349 115.757 513.438C117.307 515.504 118.082 517.975 118.082 520.85C118.082 525.252 116.656 528.711 113.803 531.227C110.951 533.742 106.919 535 101.708 535H84.6938ZM91.1626 512.056V529.71H101.843C104.853 529.71 107.222 528.936 108.952 527.386C110.704 525.813 111.58 523.657 111.58 520.917C111.58 515.01 108.368 512.056 101.944 512.056H91.1626ZM91.1626 506.868H100.933C103.763 506.868 106.021 506.16 107.705 504.745C109.412 503.33 110.266 501.41 110.266 498.984C110.266 496.289 109.479 494.334 107.907 493.122C106.335 491.886 103.943 491.269 100.731 491.269H91.1626V506.868ZM162.218 485.945V519.3C162.195 523.927 160.735 527.711 157.838 530.654C154.963 533.596 151.055 535.247 146.113 535.606L144.395 535.674C139.027 535.674 134.748 534.225 131.559 531.328C128.369 528.43 126.752 524.443 126.707 519.367V485.945H133.108V519.165C133.108 522.714 134.085 525.477 136.04 527.453C137.994 529.407 140.779 530.384 144.395 530.384C148.056 530.384 150.853 529.407 152.784 527.453C154.738 525.499 155.715 522.748 155.715 519.199V485.945H162.218ZM206.32 491.269H190.552V535H184.117V491.269H168.383V485.945H206.32V491.269ZM236.305 535H229.836V485.945H236.305V535ZM265.28 535V485.945H279.127C283.395 485.945 287.168 486.889 290.447 488.775C293.727 490.662 296.253 493.346 298.028 496.828C299.825 500.309 300.734 504.307 300.757 508.822V511.955C300.757 516.582 299.858 520.636 298.062 524.118C296.287 527.599 293.738 530.272 290.414 532.136C287.112 534 283.26 534.955 278.857 535H265.28ZM271.749 491.269V529.71H278.554C283.541 529.71 287.415 528.161 290.178 525.061C292.963 521.961 294.355 517.548 294.355 511.82V508.957C294.355 503.386 293.042 499.062 290.414 495.985C287.808 492.886 284.102 491.313 279.295 491.269H271.749ZM348.295 512.056C348.295 516.863 347.487 521.063 345.87 524.657C344.252 528.228 341.961 530.957 338.997 532.844C336.032 534.73 332.573 535.674 328.62 535.674C324.756 535.674 321.331 534.73 318.344 532.844C315.356 530.935 313.032 528.228 311.37 524.724C309.73 521.198 308.888 517.121 308.843 512.494V508.957C308.843 504.24 309.663 500.073 311.302 496.457C312.942 492.841 315.255 490.078 318.243 488.169C321.252 486.237 324.689 485.271 328.552 485.271C332.483 485.271 335.942 486.226 338.929 488.135C341.939 490.022 344.252 492.773 345.87 496.39C347.487 499.983 348.295 504.172 348.295 508.957V512.056ZM341.86 508.889C341.86 503.072 340.692 498.613 338.356 495.514C336.021 492.392 332.752 490.831 328.552 490.831C324.464 490.831 321.241 492.392 318.883 495.514C316.547 498.613 315.345 502.926 315.278 508.451V512.056C315.278 517.694 316.457 522.13 318.815 525.364C321.196 528.576 324.464 530.182 328.62 530.182C332.797 530.182 336.032 528.666 338.323 525.634C340.614 522.579 341.793 518.21 341.86 512.528V508.889ZM395.699 535H389.197L364.501 497.198V535H357.999V485.945H364.501L389.264 523.916V485.945H395.699V535ZM410.018 486.99L409.311 499.388H404.964L404.998 483.25H410.018V486.99ZM453.143 491.269H437.375V535H430.94V491.269H415.207V485.945H453.143V491.269ZM486.767 519.536L487.71 526.004L489.092 520.176L498.795 485.945H504.253L513.72 520.176L515.068 526.105L516.112 519.502L523.727 485.945H530.229L518.336 535H512.44L502.333 499.253L501.558 495.514L500.783 499.253L490.305 535H484.409L472.549 485.945H479.018L486.767 519.536ZM563.044 522.197H542.493L537.877 535H531.206L549.938 485.945H555.599L574.365 535H567.728L563.044 522.197ZM544.447 516.874H561.124L552.769 493.93L544.447 516.874ZM618.669 535H612.167L587.471 497.198V535H580.968V485.945H587.471L612.234 523.916V485.945H618.669V535ZM667.858 535H661.356L636.66 497.198V535H630.158V485.945H636.66L661.423 523.916V485.945H667.858V535ZM707.042 522.197H686.49L681.874 535H675.203L693.936 485.945H699.596L718.362 535H711.725L707.042 522.197ZM688.444 516.874H705.121L696.766 493.93L688.444 516.874Z" fill="black"/>
</svg>
