<svg width="1440" height="1024" viewBox="0 0 1440 1024" fill="none" xmlns="http://www.w3.org/2000/svg">
<path d="M102.618 566.128C102.955 563.613 101.573 561.838 98.4736 560.805L92.1396 558.952C86.7939 557.11 84.2109 554.056 84.3906 549.788C84.5479 546.576 86.0078 543.948 88.7705 541.904C91.5557 539.838 94.8237 538.827 98.5747 538.872C102.258 538.917 105.246 539.995 107.537 542.106C109.85 544.195 110.962 546.924 110.872 550.293L104.808 550.26C104.853 548.44 104.28 546.958 103.089 545.812C101.899 544.667 100.315 544.072 98.3389 544.027C96.2275 543.982 94.4082 544.499 92.8809 545.577C91.4658 546.587 90.646 547.913 90.4214 549.552C90.1294 551.664 91.4209 553.202 94.2959 554.168L97.3618 555.01C101.54 556.088 104.504 557.492 106.256 559.222C108.008 560.951 108.817 563.096 108.682 565.657C108.547 567.925 107.806 569.902 106.458 571.586C105.111 573.271 103.314 574.562 101.068 575.461C98.8218 576.337 96.4297 576.741 93.8916 576.674C90.0283 576.629 86.8389 575.506 84.3232 573.305C81.8076 571.081 80.5947 568.229 80.6846 564.747L86.7827 564.781C86.7827 566.825 87.4341 568.464 88.7368 569.7C90.0396 570.935 91.8252 571.553 94.0938 571.553C96.3174 571.598 98.2378 571.137 99.855 570.171C101.472 569.183 102.393 567.835 102.618 566.128ZM130.649 576.674C126.112 576.584 122.563 574.911 120.002 571.654C117.442 568.397 116.364 564.23 116.768 559.154L116.937 557.706C117.318 554.089 118.385 550.788 120.137 547.8C121.912 544.813 124.068 542.567 126.606 541.062C129.144 539.535 131.884 538.805 134.827 538.872C138.578 538.962 141.52 540.208 143.654 542.612C145.788 545.015 146.956 548.272 147.158 552.382C147.225 553.842 147.18 555.302 147.023 556.762L146.652 559.559H122.833C122.428 562.86 122.967 565.668 124.45 567.981C125.955 570.295 128.189 571.497 131.154 571.586C134.748 571.676 138.072 570.059 141.127 566.735L144.631 569.7C143.104 571.901 141.127 573.63 138.701 574.888C136.298 576.124 133.614 576.719 130.649 576.674ZM134.523 543.959C132.008 543.892 129.807 544.746 127.92 546.52C126.056 548.294 124.573 550.934 123.473 554.438L141.194 554.471L141.329 553.932C141.688 551.102 141.228 548.755 139.948 546.891C138.69 545.004 136.882 544.027 134.523 543.959ZM166.429 576.674C161.892 576.584 158.343 574.911 155.783 571.654C153.222 568.397 152.144 564.23 152.548 559.154L152.717 557.706C153.099 554.089 154.166 550.788 155.917 547.8C157.692 544.813 159.848 542.567 162.386 541.062C164.924 539.535 167.665 538.805 170.607 538.872C174.358 538.962 177.3 540.208 179.434 542.612C181.568 545.015 182.736 548.272 182.938 552.382C183.005 553.842 182.96 555.302 182.803 556.762L182.433 559.559H158.613C158.208 562.86 158.748 565.668 160.23 567.981C161.735 570.295 163.97 571.497 166.935 571.586C170.528 571.676 173.853 570.059 176.907 566.735L180.411 569.7C178.884 571.901 176.907 573.63 174.481 574.888C172.078 576.124 169.394 576.719 166.429 576.674ZM170.304 543.959C167.788 543.892 165.587 544.746 163.7 546.52C161.836 548.294 160.354 550.934 159.253 554.438L176.975 554.471L177.109 553.932C177.469 551.102 177.008 548.755 175.728 546.891C174.47 545.004 172.662 544.027 170.304 543.959ZM219.459 530.719L217.91 539.546H224.547L223.705 544.364H217.101L213.294 567.038C213.227 567.622 213.215 568.161 213.26 568.655C213.417 570.407 214.372 571.283 216.124 571.283C216.865 571.283 217.854 571.171 219.089 570.946L218.617 576.034C217.157 576.438 215.675 576.64 214.17 576.64C211.744 576.595 209.925 575.708 208.712 573.979C207.499 572.227 207.027 569.879 207.297 566.937L211.003 544.364H204.568L205.41 539.546H211.845L213.395 530.719H219.459ZM236.979 543.993C240.168 540.512 243.841 538.816 247.996 538.906C251.41 538.951 253.937 540.13 255.577 542.443C257.239 544.734 257.856 547.958 257.43 552.113L253.454 576H247.356L251.365 552.012C251.5 550.911 251.511 549.889 251.399 548.946C251.017 545.801 249.164 544.195 245.84 544.128C242.111 544.038 238.899 545.992 236.204 549.99L231.689 576H225.591L234.587 524.25H240.685L236.979 543.993ZM278.554 576.674C274.017 576.584 270.468 574.911 267.908 571.654C265.347 568.397 264.269 564.23 264.673 559.154L264.842 557.706C265.224 554.089 266.291 550.788 268.042 547.8C269.817 544.813 271.973 542.567 274.511 541.062C277.049 539.535 279.79 538.805 282.732 538.872C286.483 538.962 289.425 540.208 291.559 542.612C293.693 545.015 294.861 548.272 295.063 552.382C295.13 553.842 295.085 555.302 294.928 556.762L294.558 559.559H270.738C270.333 562.86 270.873 565.668 272.355 567.981C273.86 570.295 276.095 571.497 279.06 571.586C282.653 571.676 285.978 570.059 289.032 566.735L292.536 569.7C291.009 571.901 289.032 573.63 286.606 574.888C284.203 576.124 281.519 576.719 278.554 576.674ZM282.429 543.959C279.913 543.892 277.712 544.746 275.825 546.52C273.961 548.294 272.479 550.934 271.378 554.438L289.1 554.471L289.234 553.932C289.594 551.102 289.133 548.755 287.853 546.891C286.595 545.004 284.787 544.027 282.429 543.959Z" fill="black"/>
<path d="M153.773 702.035C136.419 698.612 124.421 693.264 124.421 682.567C124.421 671.657 137.705 663.313 160.415 663.313C208.193 663.313 206.908 696.687 206.908 696.687L246.115 685.99C246.115 685.99 242.473 637 161.915 637C109.852 637 84.999 660.746 84.999 686.632C84.999 707.597 102.996 724.07 135.134 730.915L177.555 739.9C200.48 744.821 213.549 747.602 213.549 762.791C213.549 775.413 198.123 782.687 172.842 782.687C113.28 782.687 118.208 742.04 118.208 742.04L79 752.095C80.2855 776.055 102.353 809 173.484 809C218.263 809 252.757 792.099 252.757 759.796C252.757 737.547 240.331 719.363 199.623 711.234L153.773 702.035Z" fill="#482EC4"/>
<path d="M261.347 663.313H334.621V806.219H372.758V663.313H446.031V639.995H261.347V663.313Z" fill="#482EC4"/>
<path d="M600.387 806.219H641.523L562.893 639.995H496.69L418.06 806.219H458.982L481.906 755.945H577.462L600.387 806.219ZM524.328 663.313H535.255L566.75 732.413H492.619L524.328 663.313Z" fill="#482EC4"/>
<path d="M663.05 639.995V806.219H701.187V734.98H724.754C758.606 734.98 769.747 739.9 773.818 755.09C783.245 789.96 785.602 800.443 789.672 806.219H831.237C827.38 801.726 826.095 797.234 805.741 745.035C801.885 735.194 793.529 727.279 776.817 725.139C799.314 722.572 824.167 714.229 824.167 687.488C824.167 655.826 798.457 639.995 741.466 639.995H663.05ZM701.187 711.662V663.313H743.608C768.033 663.313 784.53 670.373 784.53 687.488C784.53 704.602 768.033 711.662 743.608 711.662H701.187Z" fill="#482EC4"/>
<path d="M921.016 702.035C903.662 698.612 891.664 693.264 891.664 682.567C891.664 671.657 904.948 663.313 927.658 663.313C975.436 663.313 974.15 696.687 974.15 696.687L1013.36 685.99C1013.36 685.99 1009.72 637 929.158 637C877.095 637 852.242 660.746 852.242 686.632C852.242 707.597 870.239 724.07 902.377 730.915L944.798 739.9C967.723 744.821 980.792 747.602 980.792 762.791C980.792 775.413 965.366 782.687 940.085 782.687C880.523 782.687 885.451 742.04 885.451 742.04L846.243 752.095C847.528 776.055 869.596 809 940.727 809C985.506 809 1020 792.099 1020 759.796C1020 737.547 1007.57 719.363 966.866 711.234L921.016 702.035Z" fill="#482EC4"/>
</svg>
