<svg width="1440" height="1024" viewBox="0 0 1440 1024" fill="none" xmlns="http://www.w3.org/2000/svg">
<g clip-path="url(#clip0_10704_28)">
<path d="M8.75977 64H2.45947L10.9834 14.9453H17.2837L8.75977 64ZM50.5708 42.3364H30.6255L26.8521 64H20.5181L29.042 14.9453H58.5557L57.6123 20.2686H34.4326L31.5352 37.0469H51.5142L50.5708 42.3364ZM113.911 20.2686H98.6484L91.0679 64H84.7676L92.3481 20.2686H77.0859L78.0293 14.9453H114.854L113.911 20.2686ZM150.331 64H143.997L147.939 41.3257H123.984L120.042 64H113.708L122.232 14.9453H128.566L124.894 36.0361H148.815L152.487 14.9453H158.855L150.331 64ZM192.647 41.3257H172.028L168.996 58.7104H192.984L192.041 64H161.752L170.276 14.9453H200.228L199.285 20.2686H175.667L172.938 36.0361H193.557L192.647 41.3257ZM218.758 39.54L235.436 14.9453H242.982L220.982 46.0425L217.849 64H211.548L214.783 45.335L203.833 14.9453H210.706L218.758 39.54ZM251.338 16.2256L248.777 28.3882H244.465L247.059 12.25H251.978L251.338 16.2256ZM273.81 44.1558H262.49L259.053 64H252.686L261.209 14.9453L275.966 14.979C281.11 15.0015 285.029 16.3042 287.725 18.8872C290.42 21.4702 291.554 24.9854 291.127 29.4326C290.88 32.5098 289.757 35.2163 287.758 37.5522C285.782 39.8882 283.143 41.6514 279.841 42.8418L287.455 63.562L287.421 64H280.683L273.81 44.1558ZM263.399 38.8662L272.698 38.8999C275.933 38.8999 278.662 38.0464 280.885 36.3394C283.109 34.6099 284.412 32.3076 284.793 29.4326C285.13 26.625 284.569 24.4238 283.109 22.8291C281.649 21.2344 279.425 20.3921 276.438 20.3022L266.634 20.2686L263.399 38.8662ZM325.189 41.3257H304.57L301.538 58.7104H325.526L324.583 64H294.294L302.818 14.9453H332.77L331.827 20.2686H308.209L305.48 36.0361H326.099L325.189 41.3257ZM378.287 14.9453H384.621L378.725 49.6812C378.074 54.3081 376.198 58.0029 373.099 60.7656C369.999 63.5059 366.136 64.8311 361.509 64.7412C357.196 64.6514 353.861 63.3486 351.502 60.833C349.144 58.3174 348.1 54.8584 348.369 50.4561H354.669C354.422 53.1514 354.928 55.3076 356.186 56.9248C357.443 58.5195 359.33 59.3394 361.846 59.3843C364.608 59.4741 366.944 58.6094 368.854 56.79C370.763 54.9707 371.931 52.6123 372.357 49.7148L378.287 14.9453ZM429.094 14.9453L423.434 48.1313C422.67 53.23 420.469 57.2954 416.83 60.3276C413.191 63.3374 408.8 64.7974 403.657 64.7075C400.445 64.6401 397.648 63.9214 395.268 62.5513C392.909 61.1587 391.168 59.2158 390.045 56.7227C388.922 54.207 388.552 51.3545 388.934 48.165L394.594 14.9453H400.827L395.2 48.1987C394.818 51.6353 395.402 54.3418 396.952 56.3184C398.502 58.2725 400.849 59.2944 403.994 59.3843C407.408 59.519 410.283 58.5981 412.619 56.6216C414.977 54.6226 416.459 51.8262 417.066 48.2324L422.726 14.9453H429.094ZM458.169 51.3657C458.664 47.772 456.799 45.144 452.577 43.4819L446.748 41.3594L444.794 40.5171C438.235 37.5298 435.169 33.3296 435.596 27.9165C435.821 25.1987 436.753 22.7954 438.393 20.7065C440.032 18.6177 442.2 17.0117 444.895 15.8887C447.613 14.7432 450.499 14.2041 453.554 14.2715C456.519 14.3389 459.158 15.0015 461.471 16.2593C463.807 17.5171 465.582 19.2803 466.794 21.5488C468.007 23.7949 468.546 26.333 468.412 29.1631L462.044 29.1294C462.269 26.1196 461.595 23.7949 460.022 22.1553C458.45 20.4932 456.204 19.6396 453.284 19.5947C450.207 19.5498 447.635 20.2686 445.569 21.751C443.502 23.2334 442.312 25.2549 441.998 27.8154C441.548 31.1621 443.604 33.7002 448.163 35.4297L453.183 37.2153L455.71 38.2935C462.044 41.2134 464.975 45.5483 464.503 51.2983C464.256 54.061 463.324 56.4531 461.707 58.4746C460.09 60.4736 457.889 62.0234 455.104 63.124C452.341 64.2246 449.365 64.7412 446.175 64.6738C443.098 64.6514 440.279 64 437.719 62.7197C435.181 61.417 433.249 59.6426 431.924 57.3965C430.599 55.1504 430.015 52.6011 430.172 49.7485L436.506 49.7822C436.304 52.7021 437.09 55.0269 438.864 56.7563C440.661 58.4634 443.188 59.3394 446.445 59.3843C449.702 59.4292 452.386 58.7217 454.497 57.2617C456.608 55.8018 457.833 53.8364 458.169 51.3657ZM511.2 20.2686H495.938L488.357 64H482.057L489.637 20.2686H474.375L475.318 14.9453H512.143L511.2 20.2686ZM544.554 64.6738C541.432 64.6064 538.714 63.854 536.401 62.4165C534.11 60.979 532.302 58.8677 530.977 56.0825C529.651 53.2749 528.921 50.1304 528.787 46.6489C528.652 43.9312 528.955 40.5732 529.696 36.5752C530.438 32.5771 531.718 28.9722 533.537 25.7603C535.356 22.5483 537.569 19.9766 540.174 18.0449C543.701 15.4395 547.721 14.1816 552.236 14.2715C557.02 14.3613 560.793 16.0234 563.556 19.2578C566.319 22.4697 567.801 26.8271 568.003 32.3301C568.093 34.6885 567.846 37.687 567.262 41.3257C566.701 44.9644 565.679 48.3447 564.196 51.4668C562.736 54.5889 560.872 57.2056 558.604 59.3169C554.65 63.0005 549.967 64.7861 544.554 64.6738ZM561.771 33.8799C561.905 29.4551 561.13 26.0298 559.446 23.604C557.761 21.1558 555.257 19.8867 551.933 19.7969C548.923 19.707 546.228 20.5156 543.847 22.2227C541.488 23.9297 539.545 26.4902 538.018 29.9043C536.513 33.2959 535.559 37.5972 535.154 42.8081L535.053 44.998C534.918 49.4004 535.705 52.8481 537.412 55.3413C539.119 57.8345 541.601 59.126 544.857 59.2158C549.103 59.3281 552.618 57.8008 555.403 54.6338C558.21 51.4443 560.075 46.9746 560.996 41.2246C561.445 38.3945 561.703 35.9463 561.771 33.8799ZM609.545 64H603.413L585.894 25.9287L579.29 64H572.922L581.446 14.9453H587.578L605.131 53.1851L611.769 14.9453H618.069L609.545 64ZM651.861 41.3257H631.242L628.21 58.7104H652.198L651.255 64H620.966L629.49 14.9453H659.442L658.499 20.2686H634.881L632.152 36.0361H652.771L651.861 41.3257ZM692.796 14.9453L701.388 54.9033L723.894 14.9453H732.215L723.691 64H717.391L720.76 44.5938L724.77 24.8506L702.533 64H697.682L688.922 24.0757L685.89 45.2339L682.622 64H676.288L684.812 14.9453H692.796ZM753.037 64.6738C749.915 64.6064 747.197 63.854 744.883 62.4165C742.592 60.979 740.784 58.8677 739.459 56.0825C738.134 53.2749 737.404 50.1304 737.269 46.6489C737.134 43.9312 737.438 40.5732 738.179 36.5752C738.92 32.5771 740.2 28.9722 742.02 25.7603C743.839 22.5483 746.051 19.9766 748.657 18.0449C752.183 15.4395 756.204 14.1816 760.718 14.2715C765.502 14.3613 769.276 16.0234 772.039 19.2578C774.801 22.4697 776.284 26.8271 776.486 32.3301C776.576 34.6885 776.329 37.687 775.745 41.3257C775.183 44.9644 774.161 48.3447 772.679 51.4668C771.219 54.5889 769.354 57.2056 767.086 59.3169C763.133 63.0005 758.45 64.7861 753.037 64.6738ZM770.253 33.8799C770.388 29.4551 769.613 26.0298 767.928 23.604C766.244 21.1558 763.739 19.8867 760.415 19.7969C757.405 19.707 754.71 20.5156 752.329 22.2227C749.971 23.9297 748.028 26.4902 746.5 29.9043C744.996 33.2959 744.041 37.5972 743.637 42.8081L743.536 44.998C743.401 49.4004 744.187 52.8481 745.894 55.3413C747.601 57.8345 750.083 59.126 753.34 59.2158C757.585 59.3281 761.1 57.8008 763.885 54.6338C766.693 51.4443 768.557 46.9746 769.478 41.2246C769.927 38.3945 770.186 35.9463 770.253 33.8799ZM802.496 44.1558H791.175L787.739 64H781.371L789.895 14.9453L804.652 14.979C809.795 15.0015 813.715 16.3042 816.41 18.8872C819.105 21.4702 820.24 24.9854 819.813 29.4326C819.566 32.5098 818.443 35.2163 816.444 37.5522C814.467 39.8882 811.828 41.6514 808.526 42.8418L816.141 63.562L816.107 64H809.369L802.496 44.1558ZM792.085 38.8662L801.384 38.8999C804.618 38.8999 807.347 38.0464 809.571 36.3394C811.794 34.6099 813.097 32.3076 813.479 29.4326C813.816 26.625 813.254 24.4238 811.794 22.8291C810.334 21.2344 808.111 20.3921 805.124 20.3022L795.319 20.2686L792.085 38.8662ZM853.875 41.3257H833.256L830.224 58.7104H854.212L853.269 64H822.98L831.504 14.9453H861.456L860.512 20.2686H836.895L834.166 36.0361H854.785L853.875 41.3257Z" fill="#EEAE53"/>
<path d="M815.657 125.796L812.322 145H805.988L814.512 95.9453L830.886 95.979C835.939 95.979 839.836 97.3267 842.577 100.022C845.317 102.695 846.496 106.255 846.114 110.702C845.71 115.396 843.834 119.091 840.488 121.787C837.164 124.482 832.772 125.83 827.314 125.83L815.657 125.796ZM816.567 120.506L827.483 120.54C830.919 120.54 833.738 119.675 835.939 117.946C838.141 116.216 839.432 113.813 839.814 110.736C840.173 107.973 839.601 105.738 838.096 104.031C836.591 102.302 834.401 101.392 831.526 101.302L819.902 101.269L816.567 120.506ZM855.346 145H849.045L857.569 95.9453H863.87L855.346 145ZM897.999 122.326H877.38L874.348 139.71H898.336L897.393 145H867.104L875.628 95.9453H905.58L904.636 101.269H881.019L878.29 117.036H898.909L897.999 122.326ZM942.91 129.367C941.966 134.443 939.664 138.464 936.003 141.429C932.364 144.394 927.996 145.809 922.897 145.674C919.865 145.606 917.214 144.865 914.946 143.45C912.677 142.013 910.914 139.958 909.656 137.285C908.398 134.589 907.702 131.613 907.567 128.356C907.478 126.515 907.556 124.718 907.803 122.966L908.376 118.923C909.432 111.556 912.015 105.75 916.125 101.504C920.258 97.2368 925.278 95.1592 931.185 95.2715C935.79 95.3613 939.439 96.855 942.135 99.7524C944.83 102.627 946.256 106.625 946.414 111.747H940.113C939.821 104.874 937.126 101.167 932.027 100.628L930.916 100.561C926.67 100.449 923.122 102.032 920.269 105.312C917.439 108.568 915.608 113.027 914.777 118.687L914.036 123.774L913.834 126.739C913.699 130.872 914.429 134.163 916.024 136.611C917.641 139.037 920.033 140.294 923.2 140.384C926.614 140.497 929.433 139.677 931.657 137.925C933.903 136.173 935.61 133.354 936.778 129.468L942.91 129.367ZM980.341 122.326H959.722L956.689 139.71H980.678L979.734 145H949.446L957.97 95.9453H987.921L986.978 101.269H963.36L960.631 117.036H981.25L980.341 122.326ZM1022.76 145.674C1019.64 145.606 1016.92 144.854 1014.6 143.417C1012.31 141.979 1010.51 139.868 1009.18 137.083C1007.86 134.275 1007.13 131.13 1006.99 127.649C1006.86 124.931 1007.16 121.573 1007.9 117.575C1008.64 113.577 1009.92 109.972 1011.74 106.76C1013.56 103.548 1015.77 100.977 1018.38 99.0449C1021.9 96.4395 1025.93 95.1816 1030.44 95.2715C1035.22 95.3613 1039 97.0234 1041.76 100.258C1044.52 103.47 1046.01 107.827 1046.21 113.33C1046.3 115.688 1046.05 118.687 1045.47 122.326C1044.9 125.964 1043.88 129.345 1042.4 132.467C1040.94 135.589 1039.08 138.206 1036.81 140.317C1032.85 144 1028.17 145.786 1022.76 145.674ZM1039.97 114.88C1040.11 110.455 1039.33 107.03 1037.65 104.604C1035.97 102.156 1033.46 100.887 1030.14 100.797C1027.13 100.707 1024.43 101.516 1022.05 103.223C1019.69 104.93 1017.75 107.49 1016.22 110.904C1014.72 114.296 1013.76 118.597 1013.36 123.808L1013.26 125.998C1013.12 130.4 1013.91 133.848 1015.62 136.341C1017.32 138.834 1019.8 140.126 1023.06 140.216C1027.31 140.328 1030.82 138.801 1033.61 135.634C1036.41 132.444 1038.28 127.975 1039.2 122.225C1039.65 119.395 1039.91 116.946 1039.97 114.88ZM1081.18 123.336H1061.23L1057.46 145H1051.13L1059.65 95.9453H1089.16L1088.22 101.269H1065.04L1062.14 118.047H1082.12L1081.18 123.336ZM1112.65 139.71H1135.22L1134.28 145H1105.37L1113.89 95.9453H1120.26L1112.65 139.71ZM1171.07 132.197H1151.19L1144.49 145H1137.71L1164.36 95.9453H1169.92L1179.63 145H1173.39L1171.07 132.197ZM1153.99 126.874H1170.12L1166.05 103.998L1153.99 126.874ZM1223.05 145H1216.92L1199.4 106.929L1192.8 145H1186.43L1194.96 95.9453H1201.09L1218.64 134.185L1225.28 95.9453H1231.58L1223.05 145ZM1234.48 145L1243 95.9453L1255.73 95.979C1259.73 95.979 1263.17 96.9785 1266.04 98.9775C1268.94 100.977 1271.02 103.739 1272.28 107.266C1273.53 110.77 1273.91 114.7 1273.39 119.058L1273.05 121.517C1272.06 128.66 1269.29 134.365 1264.73 138.632C1260.17 142.877 1254.44 145 1247.55 145H1234.48ZM1248.39 101.269L1241.72 139.71L1247.95 139.744C1252.71 139.744 1256.75 138.262 1260.05 135.297C1263.37 132.332 1265.53 128.267 1266.52 123.101C1267.3 118.968 1267.57 115.453 1267.32 112.555C1266.99 109.074 1265.83 106.356 1263.85 104.402C1261.88 102.425 1259.23 101.392 1255.9 101.302L1248.39 101.269Z" fill="#EEAE53"/>
<path d="M1145.04 985.336H1125.1L1121.32 1007H1114.99L1123.51 957.945H1153.03L1152.08 963.269H1128.9L1126 980.047H1145.98L1145.04 985.336ZM1170.31 1007.67C1167.19 1007.61 1164.47 1006.85 1162.16 1005.42C1159.86 1003.98 1158.06 1001.87 1156.73 999.083C1155.41 996.275 1154.68 993.13 1154.54 989.649C1154.41 986.931 1154.71 983.573 1155.45 979.575C1156.19 975.577 1157.47 971.972 1159.29 968.76C1161.11 965.548 1163.32 962.977 1165.93 961.045C1169.46 958.439 1173.48 957.182 1177.99 957.271C1182.77 957.361 1186.55 959.023 1189.31 962.258C1192.07 965.47 1193.56 969.827 1193.76 975.33C1193.85 977.688 1193.6 980.687 1193.02 984.326C1192.46 987.964 1191.43 991.345 1189.95 994.467C1188.49 997.589 1186.63 1000.21 1184.36 1002.32C1180.41 1006 1175.72 1007.79 1170.31 1007.67ZM1187.53 976.88C1187.66 972.455 1186.89 969.03 1185.2 966.604C1183.52 964.156 1181.01 962.887 1177.69 962.797C1174.68 962.707 1171.98 963.516 1169.6 965.223C1167.24 966.93 1165.3 969.49 1163.77 972.904C1162.27 976.296 1161.31 980.597 1160.91 985.808L1160.81 987.998C1160.67 992.4 1161.46 995.848 1163.17 998.341C1164.87 1000.83 1167.36 1002.13 1170.61 1002.22C1174.86 1002.33 1178.37 1000.8 1181.16 997.634C1183.97 994.444 1185.83 989.975 1186.75 984.225C1187.2 981.395 1187.46 978.946 1187.53 976.88ZM1219.77 987.156H1208.45L1205.01 1007H1198.64L1207.17 957.945L1221.92 957.979C1227.07 958.001 1230.99 959.304 1233.68 961.887C1236.38 964.47 1237.51 967.985 1237.09 972.433C1236.84 975.51 1235.72 978.216 1233.72 980.552C1231.74 982.888 1229.1 984.651 1225.8 985.842L1233.41 1006.56L1233.38 1007H1226.64L1219.77 987.156ZM1209.36 981.866L1218.66 981.9C1221.89 981.9 1224.62 981.046 1226.84 979.339C1229.07 977.61 1230.37 975.308 1230.75 972.433C1231.09 969.625 1230.53 967.424 1229.07 965.829C1227.61 964.234 1225.38 963.392 1222.4 963.302L1212.59 963.269L1209.36 981.866ZM1299.38 957.945L1293.72 991.131C1292.96 996.23 1290.76 1000.3 1287.12 1003.33C1283.48 1006.34 1279.09 1007.8 1273.94 1007.71C1270.73 1007.64 1267.94 1006.92 1265.55 1005.55C1263.2 1004.16 1261.46 1002.22 1260.33 999.723C1259.21 997.207 1258.84 994.354 1259.22 991.165L1264.88 957.945H1271.11L1265.49 991.199C1265.11 994.635 1265.69 997.342 1267.24 999.318C1268.79 1001.27 1271.14 1002.29 1274.28 1002.38C1277.69 1002.52 1280.57 1001.6 1282.91 999.622C1285.26 997.623 1286.75 994.826 1287.35 991.232L1293.01 957.945H1299.38ZM1328.46 994.366C1328.95 990.772 1327.09 988.144 1322.86 986.482L1317.04 984.359L1315.08 983.517C1308.52 980.53 1305.46 976.33 1305.88 970.917C1306.11 968.199 1307.04 965.795 1308.68 963.707C1310.32 961.618 1312.49 960.012 1315.18 958.889C1317.9 957.743 1320.79 957.204 1323.84 957.271C1326.81 957.339 1329.44 958.001 1331.76 959.259C1334.09 960.517 1335.87 962.28 1337.08 964.549C1338.29 966.795 1338.83 969.333 1338.7 972.163L1332.33 972.129C1332.56 969.12 1331.88 966.795 1330.31 965.155C1328.74 963.493 1326.49 962.64 1323.57 962.595C1320.49 962.55 1317.92 963.269 1315.86 964.751C1313.79 966.233 1312.6 968.255 1312.28 970.815C1311.84 974.162 1313.89 976.7 1318.45 978.43L1323.47 980.215L1326 981.293C1332.33 984.213 1335.26 988.548 1334.79 994.298C1334.54 997.061 1333.61 999.453 1331.99 1001.47C1330.38 1003.47 1328.18 1005.02 1325.39 1006.12C1322.63 1007.22 1319.65 1007.74 1316.46 1007.67C1313.39 1007.65 1310.57 1007 1308.01 1005.72C1305.47 1004.42 1303.54 1002.64 1302.21 1000.4C1300.89 998.15 1300.3 995.601 1300.46 992.749L1306.79 992.782C1306.59 995.702 1307.38 998.027 1309.15 999.756C1310.95 1001.46 1313.48 1002.34 1316.73 1002.38C1319.99 1002.43 1322.67 1001.72 1324.78 1000.26C1326.9 998.802 1328.12 996.836 1328.46 994.366ZM1397.05 963.269H1381.79L1374.21 1007H1367.91L1375.49 963.269H1360.23L1361.17 957.945H1398L1397.05 963.269ZM1413.9 1007.67C1410.78 1007.61 1408.06 1006.85 1405.74 1005.42C1403.45 1003.98 1401.65 1001.87 1400.32 999.083C1399 996.275 1398.27 993.13 1398.13 989.649C1398 986.931 1398.3 983.573 1399.04 979.575C1399.78 975.577 1401.06 971.972 1402.88 968.76C1404.7 965.548 1406.91 962.977 1409.52 961.045C1413.04 958.439 1417.06 957.182 1421.58 957.271C1426.36 957.361 1430.14 959.023 1432.9 962.258C1435.66 965.47 1437.15 969.827 1437.35 975.33C1437.44 977.688 1437.19 980.687 1436.61 984.326C1436.04 987.964 1435.02 991.345 1433.54 994.467C1432.08 997.589 1430.22 1000.21 1427.95 1002.32C1423.99 1006 1419.31 1007.79 1413.9 1007.67ZM1431.11 976.88C1431.25 972.455 1430.47 969.03 1428.79 966.604C1427.1 964.156 1424.6 962.887 1421.28 962.797C1418.27 962.707 1415.57 963.516 1413.19 965.223C1410.83 966.93 1408.89 969.49 1407.36 972.904C1405.86 976.296 1404.9 980.597 1404.5 985.808L1404.4 987.998C1404.26 992.4 1405.05 995.848 1406.76 998.341C1408.46 1000.83 1410.94 1002.13 1414.2 1002.22C1418.45 1002.33 1421.96 1000.8 1424.75 997.634C1427.55 994.444 1429.42 989.975 1430.34 984.225C1430.79 981.395 1431.05 978.946 1431.11 976.88Z" fill="#EEAE53"/>
</g>
<defs>
<clipPath id="clip0_10704_28">
<rect width="1440" height="1024" fill="white"/>
</clipPath>
</defs>
</svg>
