<svg width="1440" height="1024" viewBox="0 0 1440 1024" fill="none" xmlns="http://www.w3.org/2000/svg">
<g clip-path="url(#clip0_10704_35)">
<path d="M189.117 537.335L189.958 532.119H184.675H148.158H144.321L143.715 535.908C139.123 564.595 119.954 585.207 91.6405 585.207C74.4865 585.207 60.4898 577.99 50.669 565.318C40.7681 552.542 34.9258 533.95 34.9258 511.125C34.9258 489.99 39.7968 471.564 49.2727 458.549C58.6195 445.711 72.674 437.793 92.095 437.793C104.86 437.793 115.61 441.1 124.115 447.468C132.622 453.837 139.224 463.526 143.243 476.88L144.207 480.083H147.552H184.069H189.729L188.453 474.569C182.884 450.506 171.504 431.4 154.964 418.328C138.426 405.257 117.087 398.5 92.095 398.5C60.5457 398.5 34.5012 409.486 16.3788 429.382C-1.70089 449.231 -11.5 477.509 -11.5 511.425C-11.5 545.5 -1.58246 573.809 16.4513 593.652C34.5253 613.539 60.3751 624.5 91.3374 624.5C118.423 624.5 140.81 616.28 157.517 601.036C174.19 585.823 184.828 563.965 189.117 537.335ZM431.7 616.101V620.601H436.2H573.782H578.282V616.101V586.258V581.758H573.782H477.52V406.899V402.399H473.02H436.2H431.7V406.899V616.101ZM817.777 616.101V620.601H822.277H857.43H861.93V616.101V471.758L941.969 618.258L943.249 620.601H945.919H991.83H996.33V616.101V406.899V402.399H991.83H956.677H952.177V406.899V551.242L872.137 404.742L870.857 402.399H868.188H822.277H817.777V406.899V616.101ZM1028.39 616.101V620.601H1032.89H1069.71H1074.21V616.101V406.899V402.399H1069.71H1032.89H1028.39V406.899V616.101ZM1096.88 616.101V620.601H1101.38H1261.99H1266.49V616.101V586.858V582.358H1261.99H1154.25L1264.17 441.915L1265.13 440.693V439.142V406.899V402.399H1260.63H1102.59H1098.09V406.899V436.142V440.642H1102.59H1207.75L1097.84 581.085L1096.88 582.307V583.858V616.101ZM1289.01 616.101V620.601H1293.51H1447H1451.5V616.101V586.258V581.758H1447H1334.83V527.772H1435.18H1439.68V523.272V493.429V488.929H1435.18H1334.83V441.242H1442.15H1446.65V436.742V406.899V402.399H1442.15H1293.51H1289.01V406.899V616.101ZM304.68 624.5C336.645 624.5 362.625 613.113 380.566 592.921C398.451 572.792 407.972 544.344 407.972 510.825C407.972 477.154 398.411 449.022 380.477 429.257C362.496 409.439 336.518 398.5 304.68 398.5C272.769 398.5 246.752 409.437 228.751 429.255C210.797 449.021 201.236 477.154 201.236 510.825C201.236 544.348 210.797 572.797 228.721 592.925C246.7 613.113 272.715 624.5 304.68 624.5ZM304.68 585.207C286.912 585.207 272.842 577.486 263.087 564.492C253.245 551.381 247.662 532.685 247.662 510.825C247.662 489.174 253.1 470.835 262.843 458.025C272.489 445.341 286.546 437.793 304.68 437.793C322.732 437.793 336.752 445.337 346.381 458.021C356.108 470.833 361.546 489.174 361.546 510.825C361.546 532.685 355.963 551.383 346.137 564.495C336.398 577.491 322.366 585.207 304.68 585.207ZM690.756 624.5C722.722 624.5 748.701 613.113 766.642 592.921C784.528 572.792 794.048 544.344 794.048 510.825C794.048 477.154 784.488 449.022 766.554 429.257C748.573 409.439 722.595 398.5 690.756 398.5C658.846 398.5 632.829 409.437 614.828 429.255C596.874 449.021 587.313 477.154 587.313 510.825C587.313 544.348 596.874 572.797 614.798 592.925C632.776 613.113 658.792 624.5 690.756 624.5ZM690.756 585.207C672.988 585.207 658.919 577.486 649.164 564.492C639.321 551.381 633.739 532.685 633.739 510.825C633.739 489.174 639.177 470.835 648.92 458.025C658.565 445.341 672.622 437.793 690.756 437.793C708.809 437.793 722.828 445.337 732.458 458.021C742.184 470.833 747.623 489.174 747.623 510.825C747.623 532.685 742.04 551.383 732.214 564.495C722.475 577.491 708.443 585.207 690.756 585.207Z" fill="#D61F2B" stroke="#D61F2B" stroke-width="9"/>
</g>
<defs>
<clipPath id="clip0_10704_35">
<rect width="1440" height="1024" fill="white"/>
</clipPath>
</defs>
</svg>
