<svg width="1440" height="1024" viewBox="0 0 1440 1024" fill="none" xmlns="http://www.w3.org/2000/svg">
<path d="M206.474 263.731H165.716L158.005 308H145.062L162.48 207.758H222.791L220.863 218.636H173.496L167.575 252.922H208.402L206.474 263.731ZM258.11 309.377C251.73 309.239 246.176 307.702 241.449 304.764C236.767 301.827 233.072 297.512 230.364 291.821C227.656 286.083 226.165 279.658 225.889 272.543C225.614 266.99 226.233 260.128 227.748 251.958C229.263 243.788 231.879 236.421 235.597 229.858C239.314 223.294 243.835 218.039 249.16 214.092C256.366 208.768 264.582 206.197 273.807 206.381C283.583 206.564 291.294 209.961 296.94 216.57C302.585 223.134 305.615 232.038 306.028 243.283C306.211 248.103 305.707 254.23 304.513 261.666C303.366 269.101 301.277 276.009 298.248 282.389C295.265 288.769 291.455 294.116 286.819 298.43C278.741 305.958 269.171 309.606 258.11 309.377ZM293.291 246.45C293.566 237.408 291.983 230.409 288.541 225.452C285.098 220.449 279.98 217.855 273.188 217.672C267.037 217.488 261.529 219.141 256.664 222.629C251.845 226.117 247.875 231.35 244.753 238.326C241.678 245.257 239.728 254.046 238.901 264.695L238.695 269.17C238.419 278.166 240.026 285.211 243.514 290.306C247.002 295.401 252.074 298.04 258.729 298.224C267.404 298.453 274.587 295.332 280.279 288.86C286.016 282.343 289.826 273.209 291.708 261.459C292.625 255.676 293.153 250.673 293.291 246.45ZM359.178 267.449H336.045L329.023 308H316.011L333.429 207.758L363.584 207.827C374.095 207.873 382.104 210.535 387.612 215.813C393.12 221.091 395.438 228.274 394.566 237.362C394.061 243.65 391.766 249.181 387.681 253.955C383.642 258.728 378.249 262.331 371.502 264.764L387.062 307.105L386.993 308H373.223L359.178 267.449ZM337.904 256.64L356.906 256.708C363.516 256.708 369.092 254.964 373.636 251.476C378.18 247.942 380.842 243.237 381.623 237.362C382.311 231.625 381.164 227.127 378.18 223.868C375.197 220.609 370.653 218.888 364.548 218.705L344.514 218.636L337.904 256.64ZM521.865 207.758L510.299 275.573C508.738 285.992 504.24 294.299 496.805 300.496C489.369 306.646 480.396 309.629 469.885 309.446C463.322 309.308 457.607 307.839 452.742 305.04C447.923 302.194 444.366 298.224 442.071 293.129C439.776 287.988 439.019 282.159 439.799 275.642L451.365 207.758H464.102L452.604 275.71C451.824 282.733 453.018 288.264 456.185 292.303C459.352 296.296 464.148 298.384 470.574 298.568C477.55 298.843 483.425 296.961 488.199 292.922C493.018 288.837 496.047 283.123 497.287 275.779L508.853 207.758H521.865ZM581.281 282.182C582.291 274.838 578.481 269.468 569.852 266.072L557.941 261.734L553.948 260.013C540.546 253.909 534.281 245.326 535.153 234.264C535.612 228.71 537.517 223.799 540.867 219.531C544.218 215.262 548.647 211.98 554.155 209.686C559.708 207.345 565.606 206.243 571.849 206.381C577.907 206.519 583.3 207.873 588.028 210.443C592.801 213.013 596.427 216.616 598.906 221.252C601.384 225.842 602.486 231.028 602.21 236.812L589.198 236.743C589.657 230.592 588.28 225.842 585.067 222.491C581.854 219.095 577.265 217.351 571.298 217.259C565.01 217.167 559.754 218.636 555.532 221.665C551.309 224.694 548.876 228.825 548.234 234.058C547.316 240.896 551.516 246.083 560.833 249.617L571.091 253.266L576.255 255.469C589.198 261.436 595.188 270.294 594.224 282.044C593.719 287.69 591.814 292.578 588.51 296.709C585.205 300.794 580.707 303.961 575.016 306.21C569.37 308.459 563.289 309.515 556.771 309.377C550.483 309.331 544.723 308 539.49 305.384C534.304 302.722 530.356 299.096 527.648 294.506C524.94 289.916 523.747 284.707 524.068 278.877L537.012 278.946C536.599 284.913 538.205 289.664 541.831 293.198C545.503 296.686 550.667 298.476 557.322 298.568C563.977 298.66 569.462 297.214 573.776 294.23C578.091 291.247 580.592 287.231 581.281 282.182ZM721.455 218.636H690.267L674.776 308H661.901L677.392 218.636H646.204L648.132 207.758H723.382L721.455 218.636ZM755.878 309.377C749.499 309.239 743.945 307.702 739.217 304.764C734.536 301.827 730.841 297.512 728.133 291.821C725.425 286.083 723.933 279.658 723.658 272.543C723.382 266.99 724.002 260.128 725.517 251.958C727.031 243.788 729.647 236.421 733.365 229.858C737.083 223.294 741.604 218.039 746.928 214.092C754.134 208.768 762.35 206.197 771.576 206.381C781.352 206.564 789.063 209.961 794.708 216.57C800.354 223.134 803.383 232.038 803.796 243.283C803.98 248.103 803.475 254.23 802.282 261.666C801.134 269.101 799.046 276.009 796.017 282.389C793.033 288.769 789.224 294.116 784.588 298.43C776.51 305.958 766.94 309.606 755.878 309.377ZM791.06 246.45C791.335 237.408 789.751 230.409 786.309 225.452C782.867 220.449 777.749 217.855 770.956 217.672C764.806 217.488 759.298 219.141 754.433 222.629C749.613 226.117 745.643 231.35 742.522 238.326C739.447 245.257 737.496 254.046 736.67 264.695L736.463 269.17C736.188 278.166 737.794 285.211 741.283 290.306C744.771 295.401 749.843 298.04 756.498 298.224C765.173 298.453 772.356 295.332 778.047 288.86C783.785 282.343 787.594 273.209 789.476 261.459C790.394 255.676 790.922 250.673 791.06 246.45ZM227.817 386.636H196.629L181.138 476H168.264L183.754 386.636H152.566L154.494 375.758H229.745L227.817 386.636ZM313.67 375.758L302.104 443.573C300.543 453.992 296.045 462.299 288.609 468.496C281.174 474.646 272.201 477.629 261.69 477.446C255.126 477.308 249.412 475.839 244.547 473.04C239.728 470.194 236.17 466.224 233.875 461.129C231.581 455.988 230.823 450.159 231.604 443.642L243.17 375.758H255.907L244.409 443.71C243.629 450.733 244.822 456.264 247.989 460.303C251.156 464.296 255.953 466.384 262.378 466.568C269.355 466.843 275.23 464.961 280.003 460.922C284.823 456.837 287.852 451.123 289.091 443.779L300.658 375.758H313.67ZM359.867 435.449H336.734L329.711 476H316.699L334.118 375.758L364.273 375.827C374.784 375.873 382.793 378.535 388.301 383.813C393.809 389.091 396.126 396.274 395.254 405.362C394.75 411.65 392.455 417.181 388.37 421.955C384.331 426.728 378.938 430.331 372.19 432.764L387.75 475.105L387.681 476H373.912L359.867 435.449ZM338.593 424.64L357.595 424.708C364.204 424.708 369.781 422.964 374.325 419.476C378.869 415.942 381.531 411.237 382.311 405.362C383 399.625 381.852 395.127 378.869 391.868C375.885 388.609 371.341 386.888 365.237 386.705L345.202 386.636L338.593 424.64ZM476.563 476H464.033L428.232 398.202L414.738 476H401.726L419.145 375.758H431.675L467.544 453.9L481.107 375.758H493.982L476.563 476ZM227.817 554.636H196.629L181.138 644H168.264L183.754 554.636H152.566L154.494 543.758H229.745L227.817 554.636ZM262.241 645.377C255.861 645.239 250.307 643.702 245.58 640.764C240.898 637.827 237.203 633.512 234.495 627.821C231.787 622.083 230.295 615.658 230.02 608.543C229.745 602.99 230.364 596.128 231.879 587.958C233.394 579.788 236.01 572.421 239.728 565.858C243.445 559.294 247.966 554.039 253.291 550.092C260.497 544.768 268.712 542.197 277.938 542.381C287.714 542.564 295.425 545.961 301.071 552.57C306.716 559.134 309.746 568.038 310.159 579.283C310.342 584.103 309.837 590.23 308.644 597.666C307.497 605.101 305.408 612.009 302.379 618.389C299.396 624.769 295.586 630.116 290.95 634.43C282.872 641.958 273.302 645.606 262.241 645.377ZM297.422 582.45C297.697 573.408 296.114 566.409 292.671 561.452C289.229 556.449 284.111 553.855 277.318 553.672C271.168 553.488 265.66 555.141 260.795 558.629C255.976 562.117 252.005 567.35 248.884 574.326C245.809 581.257 243.858 590.046 243.032 600.695L242.826 605.17C242.55 614.166 244.157 621.211 247.645 626.306C251.133 631.401 256.205 634.04 262.86 634.224C271.535 634.453 278.718 631.332 284.41 624.86C290.147 618.343 293.957 609.209 295.838 597.459C296.756 591.676 297.284 586.673 297.422 582.45ZM201.379 786.182C202.389 778.838 198.58 773.468 189.951 770.072L178.04 765.734L174.047 764.013C160.645 757.909 154.379 749.326 155.251 738.264C155.71 732.71 157.615 727.799 160.966 723.531C164.316 719.262 168.746 715.98 174.253 713.686C179.807 711.345 185.705 710.243 191.947 710.381C198.006 710.519 203.399 711.873 208.126 714.443C212.9 717.013 216.526 720.616 219.004 725.252C221.483 729.842 222.584 735.028 222.309 740.812L209.297 740.743C209.756 734.592 208.379 729.842 205.166 726.491C201.953 723.095 197.363 721.351 191.396 721.259C185.108 721.167 179.853 722.636 175.63 725.665C171.408 728.694 168.975 732.825 168.333 738.058C167.415 744.896 171.614 750.083 180.932 753.617L191.19 757.266L196.354 759.469C209.297 765.436 215.287 774.294 214.323 786.044C213.818 791.69 211.913 796.578 208.608 800.709C205.304 804.794 200.806 807.961 195.114 810.21C189.469 812.459 183.387 813.515 176.87 813.377C170.582 813.331 164.821 812 159.589 809.384C154.402 806.722 150.455 803.096 147.747 798.506C145.039 793.916 143.846 788.707 144.167 782.877L157.11 782.946C156.697 788.913 158.304 793.664 161.93 797.198C165.602 800.686 170.765 802.476 177.42 802.568C184.076 802.66 189.561 801.214 193.875 798.23C198.189 795.247 200.691 791.231 201.379 786.182ZM285.511 785.838H244.891L231.19 812H217.352L271.811 711.758H283.17L302.999 812H290.262L285.511 785.838ZM250.605 774.96H283.583L275.253 728.212L250.605 774.96ZM391.743 812H379.213L343.412 734.202L329.918 812H316.906L334.324 711.758H346.854L382.724 789.9L396.287 711.758H409.162L391.743 812ZM415.083 812L432.501 711.758L458.525 711.827C466.695 711.827 473.718 713.869 479.593 717.954C485.514 722.039 489.759 727.685 492.33 734.891C494.9 742.051 495.657 750.083 494.602 758.987L493.913 764.013C491.894 778.609 486.225 790.267 476.908 798.988C467.59 807.663 455.886 812 441.795 812H415.083ZM443.517 722.636L429.885 801.191L442.622 801.26C452.352 801.26 460.591 798.23 467.338 792.172C474.131 786.113 478.537 777.806 480.557 767.249C482.163 758.804 482.714 751.621 482.209 745.7C481.521 738.585 479.157 733.032 475.118 729.039C471.079 725 465.663 722.888 458.87 722.705L443.517 722.636Z" fill="#E551B4"/>
</svg>
